<svg width="120" height="34" viewBox="0 0 120 34" fill="none" xmlns="http://www.w3.org/2000/svg">
<path d="M29.9051 12.2305L29.8808 9.26385H37.3948C37.492 9.40976 37.5812 9.6124 37.6623 9.87178C37.7433 10.1312 37.7838 10.4068 37.7838 10.6986C37.7838 11.2173 37.6623 11.6064 37.4191 11.8658C37.1921 12.109 36.876 12.2305 36.4707 12.2305H29.9051ZM33.3338 9.26385L33.3581 12.2305H25.8442C25.7307 12.0846 25.6334 11.882 25.5524 11.6226C25.4875 11.3632 25.4551 11.0876 25.4551 10.7958C25.4551 10.2609 25.5686 9.87178 25.7955 9.62861C26.0387 9.38544 26.3548 9.26385 26.7439 9.26385H33.3338ZM29.7106 11.574H33.4311V23.9757C33.269 24.0243 33.0258 24.0648 32.7016 24.0973C32.3774 24.1459 32.045 24.1702 31.7046 24.1702C30.9751 24.1702 30.4563 24.0405 30.1483 23.7811C29.8565 23.5218 29.7106 23.0678 29.7106 22.4194V11.574ZM42.3266 15.4647V18.5043H38.7277V15.027C38.7277 14.5731 38.833 14.1921 39.0438 13.8841C39.2707 13.5599 39.5788 13.2762 39.9678 13.033C40.5028 12.7088 41.1432 12.4575 41.8889 12.2792C42.6508 12.0846 43.4452 11.9874 44.2719 11.9874C45.9255 11.9874 46.7523 12.5386 46.7523 13.6409C46.7523 13.9003 46.7118 14.1435 46.6307 14.3704C46.5659 14.5974 46.4848 14.7919 46.3875 14.954C46.2254 14.9216 46.0228 14.8973 45.7796 14.8811C45.5526 14.8487 45.3014 14.8325 45.0258 14.8325C44.5394 14.8325 44.0531 14.8892 43.5668 15.0027C43.0804 15.1162 42.667 15.2702 42.3266 15.4647ZM38.7277 17.5803L42.3266 17.6532V23.9757C42.1645 24.0243 41.9375 24.0648 41.6457 24.0973C41.3539 24.1459 41.0378 24.1702 40.6973 24.1702C40.0165 24.1702 39.5139 24.0486 39.1897 23.8055C38.8817 23.5623 38.7277 23.1246 38.7277 22.4923V17.5803ZM53.0407 21.6899C53.4136 21.6899 53.7783 21.6575 54.135 21.5926C54.5079 21.5116 54.7753 21.4224 54.9375 21.3251V18.9907L52.8948 19.1852C52.3436 19.2176 51.9059 19.3311 51.5817 19.5257C51.2575 19.7202 51.0954 20.012 51.0954 20.4011C51.0954 20.7901 51.2494 21.1063 51.5574 21.3494C51.8654 21.5764 52.3598 21.6899 53.0407 21.6899ZM52.8948 11.963C54.5808 11.963 55.9263 12.3197 56.9315 13.033C57.9366 13.7301 58.4391 14.8163 58.4391 16.2915V21.8115C58.4391 22.2167 58.3337 22.5491 58.123 22.8085C57.9122 23.0516 57.6448 23.2624 57.3205 23.4407C56.8342 23.7325 56.2263 23.9595 55.4967 24.1216C54.7834 24.2999 53.9648 24.3891 53.0407 24.3891C51.3872 24.3891 50.0659 24.0648 49.077 23.4164C48.1044 22.7679 47.618 21.8034 47.618 20.5227C47.618 19.4203 47.9585 18.5773 48.6393 17.9937C49.3202 17.3939 50.3334 17.0291 51.679 16.8994L54.9131 16.559V16.2672C54.9131 15.716 54.6943 15.3188 54.2566 15.0756C53.8351 14.8325 53.2272 14.7109 52.4328 14.7109C51.8168 14.7109 51.2088 14.7838 50.609 14.9297C50.0254 15.0756 49.4985 15.2459 49.0284 15.4404C48.8339 15.3107 48.6636 15.1162 48.5177 14.8568C48.3881 14.5812 48.3232 14.2975 48.3232 14.0057C48.3232 13.3248 48.6961 12.8304 49.4418 12.5223C49.9119 12.3278 50.455 12.19 51.071 12.109C51.7033 12.0117 52.3112 11.963 52.8948 11.963ZM72.3777 16.4374V18.7232H68.7545V16.559C68.7545 15.9592 68.5762 15.5214 68.2195 15.2459C67.8791 14.954 67.4252 14.8081 66.8578 14.8081C66.4525 14.8081 66.0796 14.8649 65.7392 14.9784C65.3987 15.0756 65.0907 15.1972 64.8151 15.3431V18.7232H61.2162V14.9297C61.2162 14.5244 61.2973 14.1921 61.4594 13.9327C61.6377 13.6571 61.889 13.414 62.2132 13.2032C62.732 12.8466 63.3966 12.5548 64.2072 12.3278C65.0178 12.0846 65.9094 11.963 66.8821 11.963C68.6329 11.963 69.9866 12.3521 70.943 13.1303C71.8995 13.8922 72.3777 14.9946 72.3777 16.4374ZM61.2162 17.6046H64.8151V23.9757C64.653 24.0243 64.4261 24.0648 64.1342 24.0973C63.8424 24.1459 63.5263 24.1702 63.1859 24.1702C62.505 24.1702 62.0025 24.0486 61.6782 23.8055C61.3702 23.5623 61.2162 23.1246 61.2162 22.4923V17.6046ZM68.7545 17.6046H72.3777V23.9757C72.2156 24.0243 71.9887 24.0648 71.6969 24.0973C71.4051 24.1459 71.0889 24.1702 70.7485 24.1702C70.0676 24.1702 69.5651 24.0486 69.2408 23.8055C68.9166 23.5623 68.7545 23.1246 68.7545 22.4923V17.6046ZM84.6626 20.5956C84.6626 21.779 84.2168 22.7112 83.3252 23.3921C82.4335 24.0567 81.1366 24.3891 79.4344 24.3891C78.1051 24.3891 77.0108 24.1945 76.1516 23.8055C75.2924 23.4164 74.8628 22.8409 74.8628 22.079C74.8628 21.7385 74.9358 21.4467 75.0817 21.2035C75.2276 20.9442 75.414 20.7415 75.641 20.5956C76.0949 20.855 76.6218 21.0982 77.2216 21.3251C77.8376 21.5359 78.5347 21.6412 79.3128 21.6412C80.4963 21.6412 81.088 21.3008 81.088 20.6199C81.088 20.3281 80.9826 20.1012 80.7719 19.939C80.5611 19.7607 80.2126 19.631 79.7262 19.55L78.7049 19.3068C77.408 19.0312 76.4353 18.6097 75.7869 18.0423C75.1546 17.4587 74.8385 16.6643 74.8385 15.6592C74.8385 14.5244 75.2924 13.6247 76.2003 12.96C77.1243 12.2792 78.3645 11.9387 79.9208 11.9387C80.6989 11.9387 81.4041 12.0198 82.0364 12.1819C82.6848 12.3278 83.1955 12.5629 83.5683 12.8871C83.9412 13.1951 84.1276 13.5842 84.1276 14.0543C84.1276 14.3785 84.0628 14.6622 83.9331 14.9054C83.8034 15.1486 83.6332 15.3512 83.4224 15.5133C83.2441 15.3999 82.9685 15.2783 82.5957 15.1486C82.239 15.0189 81.8418 14.9135 81.4041 14.8325C80.9826 14.7514 80.5854 14.7109 80.2126 14.7109C79.629 14.7109 79.1751 14.7919 78.8508 14.954C78.5266 15.1 78.3645 15.335 78.3645 15.6592C78.3645 15.87 78.4536 16.0564 78.632 16.2185C78.8265 16.3644 79.1588 16.486 79.629 16.5833L80.6017 16.8265C82.0445 17.1507 83.082 17.6208 83.7142 18.2369C84.3465 18.8367 84.6626 19.6229 84.6626 20.5956ZM87.5185 17.5803L89.4639 17.8721V23.9514C89.3828 23.9838 89.2613 24.0162 89.0991 24.0486C88.937 24.0973 88.7587 24.1216 88.5642 24.1216C88.2237 24.1216 87.9643 24.0567 87.786 23.927C87.6077 23.7811 87.5185 23.5542 87.5185 23.2462V17.5803ZM89.4639 18.7961L87.5185 18.5287V8.24254C87.5996 8.21011 87.7212 8.17769 87.8833 8.14527C88.0616 8.09663 88.2399 8.07232 88.4183 8.07232C88.7749 8.07232 89.0343 8.14527 89.1964 8.29117C89.3747 8.42086 89.4639 8.63971 89.4639 8.94773V18.7961ZM93.1856 9.21522C93.1856 8.87478 93.3071 8.59108 93.5503 8.36412C93.7935 8.12095 94.0934 7.99936 94.45 7.99936C94.8229 7.99936 95.1228 8.12095 95.3498 8.36412C95.5767 8.59108 95.6902 8.87478 95.6902 9.21522C95.6902 9.55566 95.5767 9.84746 95.3498 10.0906C95.1228 10.3176 94.8229 10.4311 94.45 10.4311C94.0934 10.4311 93.7935 10.3176 93.5503 10.0906C93.3071 9.84746 93.1856 9.55566 93.1856 9.21522ZM93.4774 17.5803H95.4227V23.9514C95.3417 23.9838 95.2201 24.0162 95.058 24.0486C94.8959 24.0973 94.7175 24.1216 94.523 24.1216C94.1826 24.1216 93.9232 24.0567 93.7448 23.927C93.5665 23.7811 93.4774 23.5542 93.4774 23.2462V17.5803ZM95.4227 18.5287H93.4774V12.8141C93.5584 12.7817 93.68 12.7493 93.8421 12.7169C94.0204 12.6682 94.2069 12.6439 94.4014 12.6439C94.7418 12.6439 94.9931 12.7169 95.1552 12.8628C95.3336 12.9925 95.4227 13.2194 95.4227 13.5437V18.5287ZM99.2456 17.5803H101.191V20.936C101.191 21.5845 101.377 22.0465 101.75 22.3221C102.123 22.5815 102.634 22.7112 103.282 22.7112C103.558 22.7112 103.866 22.6626 104.206 22.5653C104.547 22.468 104.83 22.3545 105.057 22.2249C105.155 22.3221 105.244 22.4437 105.325 22.5896C105.406 22.7355 105.446 22.9057 105.446 23.1003C105.446 23.4569 105.236 23.7487 104.814 23.9757C104.393 24.2026 103.809 24.3161 103.063 24.3161C101.929 24.3161 101.005 24.0648 100.291 23.5623C99.5942 23.0597 99.2456 22.2249 99.2456 21.0576V17.5803ZM100.243 14.6136V13.0087H105.179C105.228 13.0735 105.276 13.1789 105.325 13.3248C105.374 13.4707 105.398 13.6247 105.398 13.7868C105.398 14.0462 105.333 14.2489 105.203 14.3948C105.074 14.5407 104.895 14.6136 104.668 14.6136H100.243ZM101.191 18.3098H99.2456V9.50702C99.3267 9.4746 99.4483 9.44218 99.6104 9.40976C99.7887 9.36112 99.9751 9.3368 100.17 9.3368C100.51 9.3368 100.761 9.40975 100.924 9.55566C101.102 9.68535 101.191 9.9042 101.191 10.2122V18.3098ZM108.618 19.6229L108.521 18.091L115.864 17.094C115.8 16.2023 115.492 15.4728 114.94 14.9054C114.389 14.3218 113.627 14.03 112.655 14.03C111.649 14.03 110.815 14.3948 110.15 15.1243C109.501 15.8376 109.177 16.867 109.177 18.2125V18.7475C109.291 20.0444 109.712 21.0333 110.442 21.7142C111.187 22.3789 112.201 22.7112 113.481 22.7112C114.162 22.7112 114.778 22.5977 115.329 22.3708C115.881 22.1438 116.318 21.9006 116.643 21.6412C116.821 21.7547 116.959 21.8925 117.056 22.0546C117.169 22.2005 117.226 22.3708 117.226 22.5653C117.226 22.8733 117.048 23.1651 116.691 23.4407C116.351 23.7001 115.889 23.9108 115.305 24.073C114.738 24.2351 114.097 24.3161 113.384 24.3161C112.136 24.3161 111.05 24.0892 110.126 23.6352C109.218 23.1813 108.513 22.5086 108.01 21.6169C107.524 20.7091 107.281 19.6067 107.281 18.3098C107.281 17.3858 107.41 16.5671 107.67 15.8538C107.945 15.1243 108.318 14.5082 108.788 14.0057C109.275 13.5031 109.85 13.1222 110.515 12.8628C111.179 12.5872 111.901 12.4494 112.679 12.4494C113.668 12.4494 114.535 12.6601 115.281 13.0816C116.043 13.5031 116.634 14.0948 117.056 14.8568C117.494 15.6025 117.713 16.4617 117.713 17.4344C117.713 17.791 117.631 18.0504 117.469 18.2125C117.307 18.3584 117.08 18.4476 116.789 18.48L108.618 19.6229Z" fill="white"/>
<path d="M11.6991 6.94818C11.996 6.43402 12.7381 6.43402 13.0349 6.94818L20.0479 19.095C20.3448 19.6092 19.9737 20.2519 19.38 20.2519H5.35404C4.76035 20.2519 4.38929 19.6092 4.68614 19.095L11.6991 6.94818Z" fill="white"/>
<g filter="url(#filter0_d_2_6256)">
<path d="M11.6992 14.6604C11.9961 14.1462 12.7382 14.1462 13.035 14.6604L20.048 26.8072C20.3449 27.3214 19.9738 27.9641 19.3801 27.9641H5.35414C4.76044 27.9641 4.38939 27.3214 4.68623 26.8072L11.6992 14.6604Z" fill="white"/>
</g>
<defs>
<filter id="filter0_d_2_6256" x="0.725613" y="6.56246" width="23.283" height="21.4016" filterUnits="userSpaceOnUse" color-interpolation-filters="sRGB">
<feFlood flood-opacity="0" result="BackgroundImageFix"/>
<feColorMatrix in="SourceAlpha" type="matrix" values="0 0 0 0 0 0 0 0 0 0 0 0 0 0 0 0 0 0 127 0" result="hardAlpha"/>
<feOffset dy="-3.85614"/>
<feGaussianBlur stdDeviation="1.92807"/>
<feComposite in2="hardAlpha" operator="out"/>
<feColorMatrix type="matrix" values="0 0 0 0 0 0 0 0 0 0 0 0 0 0 0 0 0 0 0.37 0"/>
<feBlend mode="normal" in2="BackgroundImageFix" result="effect1_dropShadow_2_6256"/>
<feBlend mode="normal" in="SourceGraphic" in2="effect1_dropShadow_2_6256" result="shape"/>
</filter>
</defs>
</svg>
