<svg width="270" height="25" viewBox="0 0 270 25" fill="none" xmlns="http://www.w3.org/2000/svg">
<path d="M11.728 24L6.8 15.296H4.688V24H0.208V1.664H8.592C10.32 1.664 11.792 1.97333 13.008 2.592C14.224 3.18933 15.1307 4.01067 15.728 5.056C16.3467 6.08 16.656 7.232 16.656 8.512C16.656 9.984 16.2293 11.3173 15.376 12.512C14.5227 13.6853 13.2533 14.496 11.568 14.944L16.912 24H11.728ZM4.688 11.936H8.432C9.648 11.936 10.5547 11.648 11.152 11.072C11.7493 10.4747 12.048 9.65333 12.048 8.608C12.048 7.584 11.7493 6.79467 11.152 6.24C10.5547 5.664 9.648 5.376 8.432 5.376H4.688V11.936ZM36.708 14.752C36.708 15.392 36.6653 15.968 36.58 16.48H23.62C23.7267 17.76 24.1747 18.7627 24.964 19.488C25.7533 20.2133 26.724 20.576 27.876 20.576C29.54 20.576 30.724 19.8613 31.428 18.432H36.26C35.748 20.1387 34.7667 21.5467 33.316 22.656C31.8653 23.744 30.084 24.288 27.972 24.288C26.2653 24.288 24.7293 23.9147 23.364 23.168C22.02 22.4 20.964 21.3227 20.196 19.936C19.4493 18.5493 19.076 16.9493 19.076 15.136C19.076 13.3013 19.4493 11.6907 20.196 10.304C20.9427 8.91733 21.988 7.85067 23.332 7.104C24.676 6.35733 26.2227 5.984 27.972 5.984C29.6573 5.984 31.1613 6.34667 32.484 7.072C33.828 7.79733 34.8627 8.832 35.588 10.176C36.3347 11.4987 36.708 13.024 36.708 14.752ZM32.068 13.472C32.0467 12.32 31.6307 11.4027 30.82 10.72C30.0093 10.016 29.0173 9.664 27.844 9.664C26.7347 9.664 25.796 10.0053 25.028 10.688C24.2813 11.3493 23.8227 12.2773 23.652 13.472H32.068ZM46.282 24.288C44.8313 24.288 43.53 24.032 42.378 23.52C41.226 22.9867 40.3087 22.272 39.626 21.376C38.9647 20.48 38.602 19.488 38.538 18.4H43.05C43.1353 19.0827 43.466 19.648 44.042 20.096C44.6393 20.544 45.3753 20.768 46.25 20.768C47.1033 20.768 47.7647 20.5973 48.234 20.256C48.7247 19.9147 48.97 19.4773 48.97 18.944C48.97 18.368 48.6713 17.9413 48.074 17.664C47.498 17.3653 46.57 17.0453 45.29 16.704C43.9673 16.384 42.8793 16.0533 42.026 15.712C41.194 15.3707 40.4687 14.848 39.85 14.144C39.2527 13.44 38.954 12.4907 38.954 11.296C38.954 10.3147 39.2313 9.41867 39.786 8.608C40.362 7.79733 41.1727 7.15733 42.218 6.688C43.2847 6.21867 44.5327 5.984 45.962 5.984C48.074 5.984 49.7593 6.51733 51.018 7.584C52.2767 8.62933 52.97 10.048 53.098 11.84H48.81C48.746 11.136 48.4473 10.5813 47.914 10.176C47.402 9.74933 46.7087 9.536 45.834 9.536C45.0233 9.536 44.394 9.68533 43.946 9.984C43.5193 10.2827 43.306 10.6987 43.306 11.232C43.306 11.8293 43.6047 12.288 44.202 12.608C44.7993 12.9067 45.7273 13.216 46.986 13.536C48.266 13.856 49.322 14.1867 50.154 14.528C50.986 14.8693 51.7007 15.4027 52.298 16.128C52.9167 16.832 53.2367 17.7707 53.258 18.944C53.258 19.968 52.97 20.8853 52.394 21.696C51.8393 22.5067 51.0287 23.1467 49.962 23.616C48.9167 24.064 47.69 24.288 46.282 24.288ZM72.9355 14.752C72.9355 15.392 72.8928 15.968 72.8075 16.48H59.8475C59.9542 17.76 60.4022 18.7627 61.1915 19.488C61.9808 20.2133 62.9515 20.576 64.1035 20.576C65.7675 20.576 66.9515 19.8613 67.6555 18.432H72.4875C71.9755 20.1387 70.9942 21.5467 69.5435 22.656C68.0928 23.744 66.3115 24.288 64.1995 24.288C62.4928 24.288 60.9568 23.9147 59.5915 23.168C58.2475 22.4 57.1915 21.3227 56.4235 19.936C55.6768 18.5493 55.3035 16.9493 55.3035 15.136C55.3035 13.3013 55.6768 11.6907 56.4235 10.304C57.1702 8.91733 58.2155 7.85067 59.5595 7.104C60.9035 6.35733 62.4502 5.984 64.1995 5.984C65.8848 5.984 67.3888 6.34667 68.7115 7.072C70.0555 7.79733 71.0902 8.832 71.8155 10.176C72.5622 11.4987 72.9355 13.024 72.9355 14.752ZM68.2955 13.472C68.2742 12.32 67.8582 11.4027 67.0475 10.72C66.2368 10.016 65.2448 9.664 64.0715 9.664C62.9622 9.664 62.0235 10.0053 61.2555 10.688C60.5088 11.3493 60.0502 12.2773 59.8795 13.472H68.2955ZM80.9415 9.952V18.528C80.9415 19.1253 81.0802 19.5627 81.3575 19.84C81.6562 20.096 82.1468 20.224 82.8295 20.224H84.9095V24H82.0935C78.3175 24 76.4295 22.1653 76.4295 18.496V9.952H74.3175V6.272H76.4295V1.888H80.9415V6.272H84.9095V9.952H80.9415ZM111.085 8.576C111.085 9.77067 110.797 10.8907 110.221 11.936C109.666 12.9813 108.781 13.824 107.565 14.464C106.37 15.104 104.855 15.424 103.021 15.424H99.2768V24H94.7968V1.664H103.021C104.749 1.664 106.221 1.96267 107.437 2.56C108.653 3.15733 109.559 3.97867 110.157 5.024C110.775 6.06933 111.085 7.25333 111.085 8.576ZM102.829 11.808C104.066 11.808 104.983 11.5307 105.581 10.976C106.178 10.4 106.477 9.6 106.477 8.576C106.477 6.4 105.261 5.312 102.829 5.312H99.2768V11.808H102.829ZM112.633 15.072C112.633 13.28 112.985 11.6907 113.689 10.304C114.415 8.91733 115.385 7.85067 116.601 7.104C117.839 6.35733 119.215 5.984 120.729 5.984C122.052 5.984 123.204 6.25067 124.186 6.784C125.188 7.31733 125.988 7.98933 126.585 8.8V6.272H131.097V24H126.585V21.408C126.01 22.24 125.21 22.9333 124.186 23.488C123.183 24.0213 122.02 24.288 120.698 24.288C119.204 24.288 117.839 23.904 116.601 23.136C115.385 22.368 114.415 21.2907 113.689 19.904C112.985 18.496 112.633 16.8853 112.633 15.072ZM126.585 15.136C126.585 14.048 126.372 13.12 125.946 12.352C125.519 11.5627 124.943 10.9653 124.217 10.56C123.492 10.1333 122.714 9.92 121.882 9.92C121.05 9.92 120.281 10.1227 119.577 10.528C118.873 10.9333 118.297 11.5307 117.849 12.32C117.423 13.088 117.209 14.0053 117.209 15.072C117.209 16.1387 117.423 17.0773 117.849 17.888C118.297 18.6773 118.873 19.2853 119.577 19.712C120.303 20.1387 121.071 20.352 121.882 20.352C122.714 20.352 123.492 20.1493 124.217 19.744C124.943 19.3173 125.519 18.72 125.946 17.952C126.372 17.1627 126.585 16.224 126.585 15.136ZM141.777 24.288C140.326 24.288 139.025 24.032 137.873 23.52C136.721 22.9867 135.804 22.272 135.121 21.376C134.46 20.48 134.097 19.488 134.033 18.4H138.545C138.63 19.0827 138.961 19.648 139.537 20.096C140.134 20.544 140.87 20.768 141.745 20.768C142.598 20.768 143.26 20.5973 143.729 20.256C144.22 19.9147 144.465 19.4773 144.465 18.944C144.465 18.368 144.166 17.9413 143.569 17.664C142.993 17.3653 142.065 17.0453 140.785 16.704C139.462 16.384 138.374 16.0533 137.521 15.712C136.689 15.3707 135.964 14.848 135.345 14.144C134.748 13.44 134.449 12.4907 134.449 11.296C134.449 10.3147 134.726 9.41867 135.281 8.608C135.857 7.79733 136.668 7.15733 137.713 6.688C138.78 6.21867 140.028 5.984 141.457 5.984C143.569 5.984 145.254 6.51733 146.513 7.584C147.772 8.62933 148.465 10.048 148.593 11.84H144.305C144.241 11.136 143.942 10.5813 143.409 10.176C142.897 9.74933 142.204 9.536 141.329 9.536C140.518 9.536 139.889 9.68533 139.441 9.984C139.014 10.2827 138.801 10.6987 138.801 11.232C138.801 11.8293 139.1 12.288 139.697 12.608C140.294 12.9067 141.222 13.216 142.481 13.536C143.761 13.856 144.817 14.1867 145.649 14.528C146.481 14.8693 147.196 15.4027 147.793 16.128C148.412 16.832 148.732 17.7707 148.753 18.944C148.753 19.968 148.465 20.8853 147.889 21.696C147.334 22.5067 146.524 23.1467 145.457 23.616C144.412 24.064 143.185 24.288 141.777 24.288ZM158.734 24.288C157.284 24.288 155.982 24.032 154.83 23.52C153.678 22.9867 152.761 22.272 152.078 21.376C151.417 20.48 151.054 19.488 150.99 18.4H155.502C155.588 19.0827 155.918 19.648 156.494 20.096C157.092 20.544 157.828 20.768 158.702 20.768C159.556 20.768 160.217 20.5973 160.686 20.256C161.177 19.9147 161.422 19.4773 161.422 18.944C161.422 18.368 161.124 17.9413 160.526 17.664C159.95 17.3653 159.022 17.0453 157.742 16.704C156.42 16.384 155.332 16.0533 154.478 15.712C153.646 15.3707 152.921 14.848 152.302 14.144C151.705 13.44 151.406 12.4907 151.406 11.296C151.406 10.3147 151.684 9.41867 152.238 8.608C152.814 7.79733 153.625 7.15733 154.67 6.688C155.737 6.21867 156.985 5.984 158.414 5.984C160.526 5.984 162.212 6.51733 163.47 7.584C164.729 8.62933 165.422 10.048 165.55 11.84H161.262C161.198 11.136 160.9 10.5813 160.366 10.176C159.854 9.74933 159.161 9.536 158.286 9.536C157.476 9.536 156.846 9.68533 156.398 9.984C155.972 10.2827 155.758 10.6987 155.758 11.232C155.758 11.8293 156.057 12.288 156.654 12.608C157.252 12.9067 158.18 13.216 159.438 13.536C160.718 13.856 161.774 14.1867 162.606 14.528C163.438 14.8693 164.153 15.4027 164.75 16.128C165.369 16.832 165.689 17.7707 165.71 18.944C165.71 19.968 165.422 20.8853 164.846 21.696C164.292 22.5067 163.481 23.1467 162.414 23.616C161.369 24.064 160.142 24.288 158.734 24.288ZM193.484 6.272L188.3 24H183.468L180.236 11.616L177.004 24H172.14L166.924 6.272H171.468L174.604 19.776L177.996 6.272H182.732L186.06 19.744L189.196 6.272H193.484ZM203.3 24.288C201.593 24.288 200.057 23.9147 198.692 23.168C197.327 22.4 196.249 21.3227 195.46 19.936C194.692 18.5493 194.308 16.9493 194.308 15.136C194.308 13.3227 194.703 11.7227 195.492 10.336C196.303 8.94933 197.401 7.88267 198.788 7.136C200.175 6.368 201.721 5.984 203.428 5.984C205.135 5.984 206.681 6.368 208.068 7.136C209.455 7.88267 210.543 8.94933 211.332 10.336C212.143 11.7227 212.548 13.3227 212.548 15.136C212.548 16.9493 212.132 18.5493 211.3 19.936C210.489 21.3227 209.38 22.4 207.972 23.168C206.585 23.9147 205.028 24.288 203.3 24.288ZM203.3 20.384C204.111 20.384 204.868 20.192 205.572 19.808C206.297 19.4027 206.873 18.8053 207.3 18.016C207.727 17.2267 207.94 16.2667 207.94 15.136C207.94 13.4507 207.492 12.16 206.596 11.264C205.721 10.3467 204.644 9.888 203.364 9.888C202.084 9.888 201.007 10.3467 200.132 11.264C199.279 12.16 198.852 13.4507 198.852 15.136C198.852 16.8213 199.268 18.1227 200.1 19.04C200.953 19.936 202.02 20.384 203.3 20.384ZM219.834 9.024C220.41 8.08533 221.157 7.34933 222.074 6.816C223.013 6.28267 224.08 6.016 225.274 6.016V10.72H224.09C222.682 10.72 221.616 11.0507 220.89 11.712C220.186 12.3733 219.834 13.5253 219.834 15.168V24H215.354V6.272H219.834V9.024ZM226.66 15.072C226.66 13.28 227.012 11.6907 227.716 10.304C228.441 8.91733 229.422 7.85067 230.66 7.104C231.897 6.35733 233.273 5.984 234.788 5.984C235.94 5.984 237.038 6.24 238.084 6.752C239.129 7.24267 239.961 7.904 240.58 8.736V0.32H245.124V24H240.58V21.376C240.025 22.2507 239.246 22.9547 238.244 23.488C237.241 24.0213 236.078 24.288 234.756 24.288C233.262 24.288 231.897 23.904 230.66 23.136C229.422 22.368 228.441 21.2907 227.716 19.904C227.012 18.496 226.66 16.8853 226.66 15.072ZM240.612 15.136C240.612 14.048 240.398 13.12 239.972 12.352C239.545 11.5627 238.969 10.9653 238.244 10.56C237.518 10.1333 236.74 9.92 235.908 9.92C235.076 9.92 234.308 10.1227 233.604 10.528C232.9 10.9333 232.324 11.5307 231.876 12.32C231.449 13.088 231.236 14.0053 231.236 15.072C231.236 16.1387 231.449 17.0773 231.876 17.888C232.324 18.6773 232.9 19.2853 233.604 19.712C234.329 20.1387 235.097 20.352 235.908 20.352C236.74 20.352 237.518 20.1493 238.244 19.744C238.969 19.3173 239.545 18.72 239.972 17.952C240.398 17.1627 240.612 16.224 240.612 15.136Z" fill="#272848"/>
<path d="M262.404 0.895998C264.623 0.895998 266.404 1.504 267.748 2.72C269.114 3.91467 269.796 5.568 269.796 7.68C269.796 9.77067 269.124 11.3707 267.78 12.48C266.436 13.568 264.655 14.112 262.436 14.112L262.308 16.576H258.372L258.212 11.136H259.652C261.508 11.136 262.938 10.8907 263.94 10.4C264.943 9.90933 265.444 9.01333 265.444 7.712C265.444 6.77333 265.167 6.02667 264.612 5.472C264.079 4.91733 263.343 4.64 262.404 4.64C261.423 4.64 260.655 4.90667 260.1 5.44C259.567 5.97333 259.3 6.70933 259.3 7.648H255.076C255.055 6.34667 255.332 5.184 255.908 4.16C256.484 3.136 257.327 2.336 258.436 1.76C259.567 1.184 260.89 0.895998 262.404 0.895998ZM260.324 24.224C259.514 24.224 258.842 23.9787 258.308 23.488C257.796 22.976 257.54 22.3467 257.54 21.6C257.54 20.8533 257.796 20.2347 258.308 19.744C258.842 19.232 259.514 18.976 260.324 18.976C261.114 18.976 261.764 19.232 262.276 19.744C262.788 20.2347 263.044 20.8533 263.044 21.6C263.044 22.3467 262.788 22.976 262.276 23.488C261.764 23.9787 261.114 24.224 260.324 24.224Z" fill="#00C3F9"/>
</svg>
