<svg width="451" height="192" viewBox="0 0 451 192" fill="none" xmlns="http://www.w3.org/2000/svg">
<rect x="1" y="1" width="449" height="190" rx="8" fill="white"/>
<g opacity="0.7">
<g filter="url(#filter0_d_264_345)">
<path d="M205.981 48.5338L217.63 75.619C218.098 76.5266 217.631 77.5634 216.641 77.9859L190.298 89.0743C189.39 89.5427 188.354 89.0757 187.931 88.0854L173.278 53.1789C172.81 52.2712 173.277 51.2345 174.267 50.8119L193.421 42.7551L205.981 48.5338Z" fill="#F5F6FB"/>
</g>
<path opacity="0.6" d="M192.363 49.302L179.664 54.6762C179.407 54.7497 179.114 54.6949 178.875 54.3465C178.801 54.0898 178.856 53.7962 179.205 53.5575L191.904 48.1833C192.16 48.1098 192.454 48.1646 192.693 48.513C192.803 48.8981 192.666 49.1458 192.363 49.302Z" fill="#00C3F9"/>
<path opacity="0.6" d="M185.838 55.6163L180.978 57.5641C180.721 57.6376 180.428 57.5828 180.189 57.2345C180.033 56.9319 180.17 56.6842 180.519 56.4455L185.378 54.4977C185.635 54.4242 185.929 54.479 186.167 54.8274C186.278 55.2125 186.094 55.5428 185.838 55.6163Z" fill="#6D71F9"/>
<path d="M193.339 42.2852L196.444 49.7305C196.904 50.8491 198.197 51.2426 199.187 50.82L205.945 47.9813" fill="#F9F9F9"/>
<path opacity="0.4" d="M203.749 54.8618L197.202 57.7095L190.316 60.585L183.989 63.2308C183.302 63.4972 182.926 64.3688 183.275 65.1023L188.108 76.637C188.374 77.3247 189.246 77.7001 189.933 77.4336L209.903 69.0736C210.591 68.8072 210.967 67.9356 210.618 67.2021L205.785 55.6675C205.271 54.8424 204.565 54.5585 203.749 54.8618ZM194.964 70.5055L193.806 67.9199L199.876 65.3477L201.034 67.9333L194.964 70.5055ZM201.383 68.6668L202.421 71.0782L196.351 73.6505L195.313 71.239L201.383 68.6668ZM198.498 61.9918L199.656 64.5774L193.586 67.1497L192.428 64.564L198.498 61.9918ZM192.079 63.8305L191.013 61.0798L197.083 58.5075L198.241 61.0931L192.079 63.8305ZM207.147 61.3897L200.389 64.2284L199.232 61.6428L205.989 58.804L207.147 61.3897ZM192.77 67.4529L186.269 70.218L185.111 67.6324L191.612 64.8673L192.77 67.4529ZM186.572 71.0341L193.073 68.269L194.23 70.8546L187.729 73.6197L186.572 71.0341ZM200.738 64.9619L207.496 62.1232L208.653 64.7088L201.896 67.5475L200.738 64.9619ZM204.887 55.9249L205.769 58.0338L199.011 60.8725L197.854 58.2869L204.052 55.6778C204.4 55.4391 204.731 55.6223 204.887 55.9249ZM184.128 63.9553L190.152 61.4656L191.309 64.0512L184.808 66.8164L183.926 64.7075C183.77 64.4049 183.953 64.0746 184.128 63.9553ZM188.759 76.2421L188.033 74.4358L194.534 71.6706L195.572 74.0821L189.502 76.6543C189.245 76.7279 188.832 76.4989 188.759 76.2421ZM209.353 68.1202L203.154 70.7292L202.116 68.3178L208.874 65.479L209.636 67.4138C209.875 67.7621 209.692 68.0924 209.353 68.1202Z" fill="#CFD5E0"/>
<path d="M191.866 69.8532L189.905 65.5316L191.824 64.661C192.298 64.4459 192.711 64.3962 193.064 64.5119C193.417 64.6277 193.685 64.8858 193.867 65.2863C194.046 65.6827 194.065 66.0539 193.921 66.4C193.777 66.746 193.469 67.0266 192.995 67.2417L191.867 67.7535L192.657 69.4944L191.866 69.8532ZM191.583 67.1283L192.619 66.6582C192.88 66.5395 193.051 66.3933 193.13 66.2195C193.207 66.0417 193.197 65.8465 193.1 65.634C193.004 65.4215 192.864 65.2877 192.682 65.2326C192.497 65.1734 192.274 65.2032 192.013 65.3219L190.977 65.7919L191.583 67.1283ZM195.949 68.0007L193.988 63.6791L195.557 62.967C196.051 62.7426 196.507 62.6393 196.924 62.657C197.343 62.6688 197.714 62.7962 198.036 63.0393C198.357 63.2783 198.621 63.6267 198.829 64.0844C199.034 64.538 199.123 64.9661 199.093 65.3687C199.064 65.7713 198.917 66.1363 198.651 66.4637C198.39 66.7892 198.012 67.0642 197.518 67.2886L195.949 68.0007ZM196.442 66.9859L197.171 66.6549C197.694 66.4176 198.026 66.1168 198.166 65.7525C198.306 65.3883 198.262 64.9528 198.032 64.446C197.8 63.9352 197.502 63.6147 197.137 63.4844C196.77 63.3501 196.326 63.4016 195.803 63.639L195.073 63.97L196.442 66.9859ZM200.618 65.8819L198.657 61.5603L201.507 60.2668L201.788 60.886L199.729 61.8206L200.285 63.0466L202.203 62.1759L202.484 62.7951L200.566 63.6657L201.409 65.5231L200.618 65.8819Z" fill="#94A0B4"/>
<g filter="url(#filter1_d_264_345)">
<path d="M256.216 83.1386L227.293 98.796C225.621 99.6914 223.546 99.0861 222.633 97.4104L207.685 69.7151C206.791 68.0415 207.396 65.9648 209.07 65.05L237.994 49.3925C239.666 48.4971 241.741 49.1024 242.654 50.7782L257.621 78.4756C258.515 80.1492 257.888 82.2432 256.216 83.1386Z" fill="url(#paint0_linear_264_345)"/>
</g>
<path d="M252.75 79.5575L227.319 93.3228C226.607 93.7155 225.714 93.4388 225.322 92.7262L212.964 69.825C212.572 69.1123 212.848 68.2186 213.56 67.8259L238.991 54.0607C239.703 53.668 240.596 53.9447 240.988 54.6573L253.346 77.5585C253.739 78.2711 253.462 79.1649 252.75 79.5575Z" fill="#F1F2F9"/>
<path d="M235.864 77.496L226.579 82.5188L228.369 74.7512L235.864 77.496Z" fill="#CDD1DA"/>
<path d="M243.542 73.336L230.177 80.579L232.761 69.3983L243.542 73.336Z" fill="#00C3F9"/>
<path d="M225.033 73.6701C226.127 73.7922 227.112 73.0038 227.234 71.9092C227.356 70.8146 226.569 69.8283 225.476 69.7063C224.382 69.5843 223.397 70.3727 223.275 71.4673C223.153 72.5619 223.94 73.5481 225.033 73.6701Z" fill="#CDD1DA"/>
<g filter="url(#filter2_d_264_345)">
<path d="M259.758 88.8014L226.875 89.4518C224.979 89.4808 223.413 87.9917 223.37 86.0837L222.786 54.6175C222.759 52.7203 224.25 51.1522 226.157 51.107L259.04 50.4566C260.937 50.4276 262.502 51.9167 262.546 53.8248L263.145 85.3018C263.172 87.199 261.655 88.7725 259.758 88.8014Z" fill="url(#paint1_linear_264_345)"/>
</g>
<path d="M257.853 84.1252L228.942 84.6958C228.129 84.7183 227.462 84.0631 227.441 83.25L226.96 57.2315C226.939 56.4184 227.594 55.751 228.407 55.7285L257.319 55.1579C258.132 55.1354 258.798 55.7907 258.82 56.6037L259.3 82.6223C259.322 83.4354 258.666 84.1028 257.853 84.1252Z" fill="#F1F2F9"/>
<path d="M243.794 74.5499L233.24 74.7554L238.393 68.6738L243.794 74.5499Z" fill="#6D71F9"/>
<path d="M252.521 74.3735L237.322 74.6813L244.746 65.9305L252.521 74.3735Z" fill="#00C3F9"/>
<path opacity="0.6" d="M235.92 66.1826C236.835 66.7924 238.073 66.5436 238.683 65.6269C239.294 64.7103 239.046 63.4728 238.131 62.863C237.215 62.2531 235.978 62.5019 235.367 63.4186C234.757 64.3353 235.004 65.5728 235.92 66.1826Z" fill="#FACE2B"/>
<path d="M260.095 89.9703L253.119 92.1211L258.675 100.337L254.148 103.398L248.592 95.1822L243.998 100.854L240.029 77.6391L260.095 89.9703Z" fill="#BAC3D2"/>
</g>
<path d="M131.737 136.702C131.737 137.682 131.532 138.546 131.121 139.292C130.711 140.039 130.113 140.622 129.329 141.042C128.555 141.453 127.631 141.658 126.557 141.658H123.043V131.774H126.557C127.631 131.774 128.555 131.98 129.329 132.39C130.113 132.792 130.711 133.366 131.121 134.112C131.532 134.85 131.737 135.713 131.737 136.702ZM126.389 139.894C127.453 139.894 128.275 139.614 128.853 139.054C129.441 138.494 129.735 137.71 129.735 136.702C129.735 135.685 129.441 134.896 128.853 134.336C128.275 133.776 127.453 133.496 126.389 133.496H125.017V139.894H126.389ZM135.189 135.386C135.479 134.892 135.861 134.504 136.337 134.224C136.813 133.935 137.345 133.79 137.933 133.79V135.904H137.359C135.913 135.904 135.189 136.576 135.189 137.92V141.658H133.215V133.902H135.189V135.386ZM142.064 133.804C142.717 133.804 143.277 133.958 143.744 134.266C144.211 134.574 144.542 134.99 144.738 135.512V133.902H146.698V141.658H144.738V140.034C144.542 140.557 144.211 140.977 143.744 141.294C143.277 141.602 142.717 141.756 142.064 141.756C141.411 141.756 140.823 141.598 140.3 141.28C139.777 140.963 139.367 140.506 139.068 139.908C138.779 139.302 138.634 138.592 138.634 137.78C138.634 136.968 138.779 136.264 139.068 135.666C139.367 135.06 139.777 134.598 140.3 134.28C140.823 133.963 141.411 133.804 142.064 133.804ZM142.68 135.526C142.064 135.526 141.569 135.727 141.196 136.128C140.823 136.53 140.636 137.08 140.636 137.78C140.636 138.48 140.823 139.031 141.196 139.432C141.569 139.824 142.064 140.02 142.68 140.02C143.277 140.02 143.767 139.82 144.15 139.418C144.542 139.008 144.738 138.462 144.738 137.78C144.738 137.09 144.542 136.544 144.15 136.142C143.767 135.732 143.277 135.526 142.68 135.526ZM151.525 133.804C152.178 133.804 152.738 133.958 153.205 134.266C153.671 134.574 154.003 134.99 154.199 135.512V133.902H156.159V141.686C156.159 142.405 156.014 143.049 155.725 143.618C155.445 144.197 155.02 144.65 154.451 144.976C153.891 145.303 153.209 145.466 152.407 145.466C151.287 145.466 150.381 145.2 149.691 144.668C149 144.136 148.58 143.413 148.431 142.498H150.377C150.489 142.89 150.703 143.194 151.021 143.408C151.347 143.632 151.763 143.744 152.267 143.744C152.845 143.744 153.312 143.572 153.667 143.226C154.021 142.89 154.199 142.377 154.199 141.686V140.034C154.003 140.557 153.671 140.977 153.205 141.294C152.738 141.602 152.178 141.756 151.525 141.756C150.871 141.756 150.283 141.598 149.761 141.28C149.238 140.963 148.827 140.506 148.529 139.908C148.239 139.302 148.095 138.592 148.095 137.78C148.095 136.968 148.239 136.264 148.529 135.666C148.827 135.06 149.238 134.598 149.761 134.28C150.283 133.963 150.871 133.804 151.525 133.804ZM152.141 135.526C151.525 135.526 151.03 135.727 150.657 136.128C150.283 136.53 150.097 137.08 150.097 137.78C150.097 138.48 150.283 139.031 150.657 139.432C151.03 139.824 151.525 140.02 152.141 140.02C152.738 140.02 153.228 139.82 153.611 139.418C154.003 139.008 154.199 138.462 154.199 137.78C154.199 137.09 154.003 136.544 153.611 136.142C153.228 135.732 152.738 135.526 152.141 135.526ZM162.327 133.902L164.441 139.166L166.401 133.902H168.571L163.825 145.354H161.641L163.391 141.434L160.129 133.902H162.327ZM173.084 133.804C173.84 133.804 174.517 133.963 175.114 134.28C175.721 134.598 176.197 135.06 176.542 135.666C176.888 136.264 177.06 136.968 177.06 137.78C177.06 138.592 176.888 139.297 176.542 139.894C176.197 140.492 175.721 140.954 175.114 141.28C174.517 141.598 173.84 141.756 173.084 141.756C172.328 141.756 171.647 141.598 171.04 141.28C170.443 140.954 169.972 140.492 169.626 139.894C169.281 139.297 169.108 138.592 169.108 137.78C169.108 136.968 169.281 136.264 169.626 135.666C169.972 135.06 170.443 134.598 171.04 134.28C171.647 133.963 172.328 133.804 173.084 133.804ZM173.084 135.512C172.534 135.512 172.067 135.708 171.684 136.1C171.302 136.483 171.11 137.043 171.11 137.78C171.11 138.518 171.302 139.082 171.684 139.474C172.067 139.857 172.534 140.048 173.084 140.048C173.635 140.048 174.102 139.857 174.484 139.474C174.867 139.082 175.058 138.518 175.058 137.78C175.058 137.043 174.867 136.483 174.484 136.1C174.102 135.708 173.635 135.512 173.084 135.512ZM185.876 133.902V141.658H183.902V140.09C183.696 140.613 183.356 141.024 182.88 141.322C182.413 141.612 181.872 141.756 181.256 141.756C180.36 141.756 179.646 141.462 179.114 140.874C178.582 140.286 178.316 139.465 178.316 138.41V133.902H180.276V138.186C180.276 138.802 180.434 139.283 180.752 139.628C181.069 139.964 181.498 140.132 182.04 140.132C182.609 140.132 183.062 139.95 183.398 139.586C183.734 139.222 183.902 138.7 183.902 138.018V133.902H185.876ZM189.644 135.386C189.934 134.892 190.316 134.504 190.792 134.224C191.268 133.935 191.8 133.79 192.388 133.79V135.904H191.814C190.368 135.904 189.644 136.576 189.644 137.92V141.658H187.67V133.902H189.644V135.386ZM200.366 132.558C199.787 132.521 199.381 132.605 199.148 132.81C198.914 133.016 198.798 133.375 198.798 133.888V133.902H200.366V135.568H198.798V141.658H196.824V135.568H195.83V133.902H196.824V133.72C196.824 132.796 197.085 132.087 197.608 131.592C198.14 131.088 198.924 130.836 199.96 130.836C200.137 130.836 200.272 130.841 200.366 130.85V132.558ZM201.323 131.676C201.323 131.359 201.435 131.102 201.659 130.906C201.883 130.701 202.177 130.598 202.541 130.598C202.905 130.598 203.199 130.701 203.423 130.906C203.647 131.102 203.759 131.359 203.759 131.676C203.759 131.984 203.647 132.241 203.423 132.446C203.199 132.642 202.905 132.74 202.541 132.74C202.177 132.74 201.883 132.642 201.659 132.446C201.435 132.241 201.323 131.984 201.323 131.676ZM203.521 133.902V141.658H201.547V133.902H203.521ZM207.281 131.298V141.658H205.307V131.298H207.281ZM216.361 137.486C216.361 137.682 216.338 137.906 216.291 138.158H210.607C210.635 138.849 210.822 139.358 211.167 139.684C211.512 140.011 211.942 140.174 212.455 140.174C212.912 140.174 213.29 140.062 213.589 139.838C213.897 139.614 214.093 139.311 214.177 138.928H216.263C216.16 139.47 215.941 139.955 215.605 140.384C215.269 140.814 214.835 141.15 214.303 141.392C213.78 141.635 213.197 141.756 212.553 141.756C211.797 141.756 211.125 141.598 210.537 141.28C209.949 140.954 209.492 140.492 209.165 139.894C208.838 139.297 208.675 138.592 208.675 137.78C208.675 136.968 208.838 136.264 209.165 135.666C209.492 135.06 209.949 134.598 210.537 134.28C211.125 133.963 211.797 133.804 212.553 133.804C213.318 133.804 213.986 133.963 214.555 134.28C215.134 134.598 215.577 135.036 215.885 135.596C216.202 136.147 216.361 136.777 216.361 137.486ZM214.373 137.29C214.401 136.656 214.233 136.175 213.869 135.848C213.514 135.522 213.076 135.358 212.553 135.358C212.021 135.358 211.573 135.522 211.209 135.848C210.845 136.175 210.644 136.656 210.607 137.29H214.373ZM225.431 133.79C226.327 133.79 227.041 134.084 227.573 134.672C228.105 135.26 228.371 136.086 228.371 137.15V141.658H226.411V137.374C226.411 136.758 226.252 136.282 225.935 135.946C225.618 135.601 225.184 135.428 224.633 135.428C224.073 135.428 223.625 135.61 223.289 135.974C222.953 136.338 222.785 136.861 222.785 137.542V141.658H220.811V131.298H222.785V135.456C222.99 134.934 223.326 134.528 223.793 134.238C224.269 133.94 224.815 133.79 225.431 133.79ZM237.402 137.486C237.402 137.682 237.379 137.906 237.332 138.158H231.648C231.676 138.849 231.863 139.358 232.208 139.684C232.553 140.011 232.983 140.174 233.496 140.174C233.953 140.174 234.331 140.062 234.63 139.838C234.938 139.614 235.134 139.311 235.218 138.928H237.304C237.201 139.47 236.982 139.955 236.646 140.384C236.31 140.814 235.876 141.15 235.344 141.392C234.821 141.635 234.238 141.756 233.594 141.756C232.838 141.756 232.166 141.598 231.578 141.28C230.99 140.954 230.533 140.492 230.206 139.894C229.879 139.297 229.716 138.592 229.716 137.78C229.716 136.968 229.879 136.264 230.206 135.666C230.533 135.06 230.99 134.598 231.578 134.28C232.166 133.963 232.838 133.804 233.594 133.804C234.359 133.804 235.027 133.963 235.596 134.28C236.175 134.598 236.618 135.036 236.926 135.596C237.243 136.147 237.402 136.777 237.402 137.486ZM235.414 137.29C235.442 136.656 235.274 136.175 234.91 135.848C234.555 135.522 234.117 135.358 233.594 135.358C233.062 135.358 232.614 135.522 232.25 135.848C231.886 136.175 231.685 136.656 231.648 137.29H235.414ZM240.777 135.386C241.067 134.892 241.449 134.504 241.925 134.224C242.401 133.935 242.933 133.79 243.521 133.79V135.904H242.947C241.501 135.904 240.777 136.576 240.777 137.92V141.658H238.803V133.902H240.777V135.386ZM251.908 137.486C251.908 137.682 251.884 137.906 251.838 138.158H246.154C246.182 138.849 246.368 139.358 246.714 139.684C247.059 140.011 247.488 140.174 248.002 140.174C248.459 140.174 248.837 140.062 249.136 139.838C249.444 139.614 249.64 139.311 249.724 138.928H251.81C251.707 139.47 251.488 139.955 251.152 140.384C250.816 140.814 250.382 141.15 249.85 141.392C249.327 141.635 248.744 141.756 248.1 141.756C247.344 141.756 246.672 141.598 246.084 141.28C245.496 140.954 245.038 140.492 244.712 139.894C244.385 139.297 244.222 138.592 244.222 137.78C244.222 136.968 244.385 136.264 244.712 135.666C245.038 135.06 245.496 134.598 246.084 134.28C246.672 133.963 247.344 133.804 248.1 133.804C248.865 133.804 249.532 133.963 250.102 134.28C250.68 134.598 251.124 135.036 251.432 135.596C251.749 136.147 251.908 136.777 251.908 137.486ZM249.92 137.29C249.948 136.656 249.78 136.175 249.416 135.848C249.061 135.522 248.622 135.358 248.1 135.358C247.568 135.358 247.12 135.522 246.756 135.848C246.392 136.175 246.191 136.656 246.154 137.29H249.92ZM254.555 140.384C254.779 140.888 254.891 141.397 254.891 141.91C254.891 142.489 254.737 142.965 254.429 143.338C254.13 143.712 253.664 143.898 253.029 143.898V143.142C253.272 143.142 253.449 143.082 253.561 142.96C253.673 142.848 253.729 142.643 253.729 142.344V142.204H252.833V140.384H254.555ZM262.936 133.804C263.692 133.804 264.369 133.963 264.966 134.28C265.573 134.598 266.049 135.06 266.394 135.666C266.739 136.264 266.912 136.968 266.912 137.78C266.912 138.592 266.739 139.297 266.394 139.894C266.049 140.492 265.573 140.954 264.966 141.28C264.369 141.598 263.692 141.756 262.936 141.756C262.18 141.756 261.499 141.598 260.892 141.28C260.295 140.954 259.823 140.492 259.478 139.894C259.133 139.297 258.96 138.592 258.96 137.78C258.96 136.968 259.133 136.264 259.478 135.666C259.823 135.06 260.295 134.598 260.892 134.28C261.499 133.963 262.18 133.804 262.936 133.804ZM262.936 135.512C262.385 135.512 261.919 135.708 261.536 136.1C261.153 136.483 260.962 137.043 260.962 137.78C260.962 138.518 261.153 139.082 261.536 139.474C261.919 139.857 262.385 140.048 262.936 140.048C263.487 140.048 263.953 139.857 264.336 139.474C264.719 139.082 264.91 138.518 264.91 137.78C264.91 137.043 264.719 136.483 264.336 136.1C263.953 135.708 263.487 135.512 262.936 135.512ZM270.281 135.386C270.57 134.892 270.953 134.504 271.429 134.224C271.905 133.935 272.437 133.79 273.025 133.79V135.904H272.451C271.004 135.904 270.281 136.576 270.281 137.92V141.658H268.307V133.902H270.281V135.386Z" fill="#272848"/>
<path d="M281.801 133.804C282.454 133.804 283.042 133.963 283.565 134.28C284.087 134.598 284.493 135.06 284.783 135.666C285.081 136.264 285.231 136.968 285.231 137.78C285.231 138.592 285.081 139.302 284.783 139.908C284.493 140.506 284.087 140.963 283.565 141.28C283.042 141.598 282.454 141.756 281.801 141.756C281.147 141.756 280.587 141.602 280.121 141.294C279.663 140.977 279.337 140.557 279.141 140.034V141.658H277.167V131.298H279.141V135.512C279.337 134.99 279.663 134.574 280.121 134.266C280.587 133.958 281.147 133.804 281.801 133.804ZM281.185 135.526C280.587 135.526 280.093 135.732 279.701 136.142C279.318 136.544 279.127 137.09 279.127 137.78C279.127 138.462 279.318 139.008 279.701 139.418C280.093 139.82 280.587 140.02 281.185 140.02C281.801 140.02 282.295 139.824 282.669 139.432C283.042 139.031 283.229 138.48 283.229 137.78C283.229 137.08 283.042 136.53 282.669 136.128C282.295 135.727 281.801 135.526 281.185 135.526ZM288.601 135.386C288.891 134.892 289.273 134.504 289.749 134.224C290.225 133.935 290.757 133.79 291.345 133.79V135.904H290.771C289.325 135.904 288.601 136.576 288.601 137.92V141.658H286.627V133.902H288.601V135.386ZM296.022 133.804C296.778 133.804 297.455 133.963 298.052 134.28C298.659 134.598 299.135 135.06 299.48 135.666C299.825 136.264 299.998 136.968 299.998 137.78C299.998 138.592 299.825 139.297 299.48 139.894C299.135 140.492 298.659 140.954 298.052 141.28C297.455 141.598 296.778 141.756 296.022 141.756C295.266 141.756 294.585 141.598 293.978 141.28C293.381 140.954 292.909 140.492 292.564 139.894C292.219 139.297 292.046 138.592 292.046 137.78C292.046 136.968 292.219 136.264 292.564 135.666C292.909 135.06 293.381 134.598 293.978 134.28C294.585 133.963 295.266 133.804 296.022 133.804ZM296.022 135.512C295.471 135.512 295.005 135.708 294.622 136.1C294.239 136.483 294.048 137.043 294.048 137.78C294.048 138.518 294.239 139.082 294.622 139.474C295.005 139.857 295.471 140.048 296.022 140.048C296.573 140.048 297.039 139.857 297.422 139.474C297.805 139.082 297.996 138.518 297.996 137.78C297.996 137.043 297.805 136.483 297.422 136.1C297.039 135.708 296.573 135.512 296.022 135.512ZM312.495 133.902L310.409 141.658H308.225L306.559 136.016L304.851 141.658H302.667L300.595 133.902H302.569L303.829 139.894L305.551 133.902H307.637L309.373 139.894L310.647 133.902H312.495ZM316.153 133.804C317.096 133.804 317.852 134.042 318.421 134.518C318.99 134.994 319.345 135.629 319.485 136.422H317.637C317.562 136.049 317.394 135.75 317.133 135.526C316.872 135.302 316.531 135.19 316.111 135.19C315.775 135.19 315.514 135.27 315.327 135.428C315.14 135.587 315.047 135.802 315.047 136.072C315.047 136.287 315.122 136.46 315.271 136.59C315.42 136.721 315.607 136.824 315.831 136.898C316.055 136.973 316.377 137.062 316.797 137.164C317.385 137.295 317.861 137.435 318.225 137.584C318.598 137.724 318.916 137.953 319.177 138.27C319.448 138.578 319.583 138.998 319.583 139.53C319.583 140.193 319.322 140.73 318.799 141.14C318.286 141.551 317.59 141.756 316.713 141.756C315.705 141.756 314.898 141.532 314.291 141.084C313.684 140.627 313.316 139.978 313.185 139.138H315.075C315.122 139.521 315.29 139.824 315.579 140.048C315.868 140.263 316.246 140.37 316.713 140.37C317.049 140.37 317.306 140.291 317.483 140.132C317.66 139.964 317.749 139.75 317.749 139.488C317.749 139.264 317.67 139.082 317.511 138.942C317.362 138.802 317.17 138.695 316.937 138.62C316.713 138.546 316.391 138.457 315.971 138.354C315.392 138.224 314.921 138.093 314.557 137.962C314.202 137.822 313.894 137.603 313.633 137.304C313.381 137.006 313.255 136.595 313.255 136.072C313.255 135.4 313.512 134.854 314.025 134.434C314.538 134.014 315.248 133.804 316.153 133.804ZM328.347 137.486C328.347 137.682 328.324 137.906 328.277 138.158H322.593C322.621 138.849 322.808 139.358 323.153 139.684C323.499 140.011 323.928 140.174 324.441 140.174C324.899 140.174 325.277 140.062 325.575 139.838C325.883 139.614 326.079 139.311 326.163 138.928H328.249C328.147 139.47 327.927 139.955 327.591 140.384C327.255 140.814 326.821 141.15 326.289 141.392C325.767 141.635 325.183 141.756 324.539 141.756C323.783 141.756 323.111 141.598 322.523 141.28C321.935 140.954 321.478 140.492 321.151 139.894C320.825 139.297 320.661 138.592 320.661 137.78C320.661 136.968 320.825 136.264 321.151 135.666C321.478 135.06 321.935 134.598 322.523 134.28C323.111 133.963 323.783 133.804 324.539 133.804C325.305 133.804 325.972 133.963 326.541 134.28C327.12 134.598 327.563 135.036 327.871 135.596C328.189 136.147 328.347 136.777 328.347 137.486ZM326.359 137.29C326.387 136.656 326.219 136.175 325.855 135.848C325.501 135.522 325.062 135.358 324.539 135.358C324.007 135.358 323.559 135.522 323.195 135.848C322.831 136.175 322.631 136.656 322.593 137.29H326.359Z" fill="#00C3F9"/>
<path d="M98.9771 155.986C99.7211 155.986 100.317 156.182 100.765 156.574C101.221 156.958 101.497 157.478 101.593 158.134H100.549C100.501 157.742 100.337 157.422 100.057 157.174C99.7851 156.918 99.4171 156.79 98.9531 156.79C98.5611 156.79 98.2531 156.886 98.0291 157.078C97.8131 157.262 97.7051 157.514 97.7051 157.834C97.7051 158.074 97.7771 158.27 97.9211 158.422C98.0731 158.566 98.2571 158.678 98.4731 158.758C98.6971 158.83 99.0011 158.91 99.3851 158.998C99.8731 159.11 100.265 159.226 100.561 159.346C100.865 159.458 101.121 159.642 101.329 159.898C101.545 160.154 101.653 160.498 101.653 160.93C101.653 161.466 101.449 161.902 101.041 162.238C100.641 162.574 100.105 162.742 99.4331 162.742C98.6491 162.742 98.0091 162.554 97.5131 162.178C97.0171 161.802 96.7251 161.278 96.6371 160.606H97.6931C97.7331 161.006 97.9051 161.33 98.2091 161.578C98.5211 161.826 98.9291 161.95 99.4331 161.95C99.8091 161.95 100.101 161.854 100.309 161.662C100.525 161.47 100.633 161.218 100.633 160.906C100.633 160.65 100.557 160.446 100.405 160.294C100.253 160.142 100.065 160.026 99.8411 159.946C99.6171 159.866 99.3091 159.782 98.9171 159.694C98.4291 159.582 98.0371 159.47 97.7411 159.358C97.4531 159.246 97.2051 159.07 96.9971 158.83C96.7971 158.582 96.6971 158.25 96.6971 157.834C96.6971 157.282 96.9011 156.838 97.3091 156.502C97.7171 156.158 98.2731 155.986 98.9771 155.986ZM108.968 156.07V162.658H107.876V161.11C107.708 161.646 107.408 162.058 106.976 162.346C106.552 162.626 106.056 162.766 105.488 162.766C104.728 162.766 104.112 162.522 103.64 162.034C103.168 161.538 102.932 160.83 102.932 159.91V156.07H104.024V159.802C104.024 160.458 104.192 160.966 104.528 161.326C104.864 161.678 105.32 161.854 105.896 161.854C106.496 161.854 106.976 161.662 107.336 161.278C107.696 160.886 107.876 160.318 107.876 159.574V156.07H108.968ZM114.354 155.986C114.938 155.986 115.458 156.122 115.914 156.394C116.37 156.666 116.726 157.058 116.982 157.57C117.246 158.082 117.378 158.682 117.378 159.37C117.378 160.058 117.246 160.658 116.982 161.17C116.726 161.674 116.37 162.062 115.914 162.334C115.458 162.606 114.938 162.742 114.354 162.742C113.714 162.742 113.17 162.582 112.722 162.262C112.282 161.934 111.978 161.506 111.81 160.978V165.778H110.718V156.07H111.81V157.75C111.978 157.222 112.282 156.798 112.722 156.478C113.17 156.15 113.714 155.986 114.354 155.986ZM114.042 156.958C113.618 156.958 113.234 157.058 112.89 157.258C112.546 157.45 112.278 157.73 112.086 158.098C111.894 158.466 111.798 158.89 111.798 159.37C111.798 159.85 111.894 160.274 112.086 160.642C112.278 161.002 112.546 161.282 112.89 161.482C113.234 161.682 113.618 161.782 114.042 161.782C114.722 161.782 115.262 161.57 115.662 161.146C116.07 160.714 116.274 160.122 116.274 159.37C116.274 158.618 116.07 158.03 115.662 157.606C115.262 157.174 114.722 156.958 114.042 156.958ZM122.44 155.986C123.024 155.986 123.544 156.122 124 156.394C124.456 156.666 124.812 157.058 125.068 157.57C125.332 158.082 125.464 158.682 125.464 159.37C125.464 160.058 125.332 160.658 125.068 161.17C124.812 161.674 124.456 162.062 124 162.334C123.544 162.606 123.024 162.742 122.44 162.742C121.8 162.742 121.256 162.582 120.808 162.262C120.368 161.934 120.064 161.506 119.896 160.978V165.778H118.804V156.07H119.896V157.75C120.064 157.222 120.368 156.798 120.808 156.478C121.256 156.15 121.8 155.986 122.44 155.986ZM122.128 156.958C121.704 156.958 121.32 157.058 120.976 157.258C120.632 157.45 120.364 157.73 120.172 158.098C119.98 158.466 119.884 158.89 119.884 159.37C119.884 159.85 119.98 160.274 120.172 160.642C120.364 161.002 120.632 161.282 120.976 161.482C121.32 161.682 121.704 161.782 122.128 161.782C122.808 161.782 123.348 161.57 123.748 161.146C124.156 160.714 124.36 160.122 124.36 159.37C124.36 158.618 124.156 158.03 123.748 157.606C123.348 157.174 122.808 156.958 122.128 156.958ZM129.878 155.986C130.51 155.986 131.074 156.122 131.57 156.394C132.074 156.666 132.466 157.058 132.746 157.57C133.034 158.082 133.178 158.682 133.178 159.37C133.178 160.058 133.034 160.658 132.746 161.17C132.466 161.674 132.074 162.062 131.57 162.334C131.074 162.606 130.51 162.742 129.878 162.742C129.246 162.742 128.678 162.606 128.174 162.334C127.678 162.062 127.286 161.674 126.998 161.17C126.71 160.658 126.566 160.058 126.566 159.37C126.566 158.682 126.71 158.082 126.998 157.57C127.286 157.058 127.678 156.666 128.174 156.394C128.678 156.122 129.246 155.986 129.878 155.986ZM129.878 156.946C129.486 156.946 129.122 157.034 128.786 157.21C128.458 157.386 128.19 157.658 127.982 158.026C127.782 158.386 127.682 158.834 127.682 159.37C127.682 159.898 127.782 160.346 127.982 160.714C128.19 161.074 128.458 161.342 128.786 161.518C129.122 161.694 129.486 161.782 129.878 161.782C130.27 161.782 130.63 161.694 130.958 161.518C131.294 161.342 131.562 161.074 131.762 160.714C131.97 160.346 132.074 159.898 132.074 159.37C132.074 158.834 131.97 158.386 131.762 158.026C131.562 157.658 131.294 157.386 130.958 157.21C130.63 157.034 130.27 156.946 129.878 156.946ZM135.693 157.402C135.909 156.946 136.225 156.594 136.641 156.346C137.057 156.09 137.553 155.962 138.129 155.962V157.15H137.793C137.177 157.15 136.673 157.31 136.281 157.63C135.889 157.942 135.693 158.462 135.693 159.19V162.658H134.601V156.07H135.693V157.402ZM142.35 161.698V162.658H141.534C140.862 162.658 140.358 162.498 140.022 162.178C139.694 161.858 139.53 161.322 139.53 160.57V157.018H138.546V156.07H139.53V154.426H140.634V156.07H142.338V157.018H140.634V160.594C140.634 161.018 140.71 161.31 140.862 161.47C141.022 161.622 141.294 161.698 141.678 161.698H142.35ZM145.747 155.986C146.491 155.986 147.087 156.182 147.535 156.574C147.991 156.958 148.267 157.478 148.363 158.134H147.319C147.271 157.742 147.107 157.422 146.827 157.174C146.555 156.918 146.187 156.79 145.723 156.79C145.331 156.79 145.023 156.886 144.799 157.078C144.583 157.262 144.475 157.514 144.475 157.834C144.475 158.074 144.547 158.27 144.691 158.422C144.843 158.566 145.027 158.678 145.243 158.758C145.467 158.83 145.771 158.91 146.155 158.998C146.643 159.11 147.035 159.226 147.331 159.346C147.635 159.458 147.891 159.642 148.099 159.898C148.315 160.154 148.423 160.498 148.423 160.93C148.423 161.466 148.219 161.902 147.811 162.238C147.411 162.574 146.875 162.742 146.203 162.742C145.419 162.742 144.779 162.554 144.283 162.178C143.787 161.802 143.495 161.278 143.407 160.606H144.463C144.503 161.006 144.675 161.33 144.979 161.578C145.291 161.826 145.699 161.95 146.203 161.95C146.579 161.95 146.871 161.854 147.079 161.662C147.295 161.47 147.403 161.218 147.403 160.906C147.403 160.65 147.327 160.446 147.175 160.294C147.023 160.142 146.835 160.026 146.611 159.946C146.387 159.866 146.079 159.782 145.687 159.694C145.199 159.582 144.807 159.47 144.511 159.358C144.223 159.246 143.975 159.07 143.767 158.83C143.567 158.582 143.467 158.25 143.467 157.834C143.467 157.282 143.671 156.838 144.079 156.502C144.487 156.158 145.043 155.986 145.747 155.986ZM150.83 156.19V157.474H149.51V156.19H150.83ZM150.83 161.374V162.658H149.51V161.374H150.83ZM159.26 154.198V160.486C159.26 161.182 159.06 161.734 158.66 162.142C158.268 162.542 157.716 162.742 157.004 162.742C156.236 162.742 155.632 162.518 155.192 162.07C154.76 161.614 154.544 160.978 154.544 160.162H155.636C155.636 160.65 155.744 161.038 155.96 161.326C156.176 161.606 156.508 161.746 156.956 161.746C157.38 161.746 157.688 161.626 157.88 161.386C158.072 161.146 158.168 160.846 158.168 160.486V154.198H159.26ZM162.048 159.25V162.658H160.956V154.198H163.644C164.612 154.198 165.336 154.426 165.816 154.882C166.296 155.33 166.536 155.946 166.536 156.73C166.536 157.522 166.288 158.142 165.792 158.59C165.296 159.03 164.58 159.25 163.644 159.25H162.048ZM163.548 158.338C164.212 158.338 164.688 158.198 164.976 157.918C165.272 157.638 165.42 157.242 165.42 156.73C165.42 156.202 165.272 155.802 164.976 155.53C164.688 155.25 164.212 155.11 163.548 155.11H162.048V158.338H163.548ZM168.904 155.086V157.978H172.12V158.818H168.904V161.77H172.48V162.658H167.812V154.198H172.48V155.086H168.904ZM177.722 154.114C178.706 154.114 179.53 154.358 180.194 154.846C180.866 155.334 181.318 155.998 181.55 156.838H180.398C180.198 156.326 179.862 155.914 179.39 155.602C178.926 155.29 178.374 155.134 177.734 155.134C177.158 155.134 176.642 155.27 176.186 155.542C175.73 155.806 175.37 156.186 175.106 156.682C174.85 157.178 174.722 157.762 174.722 158.434C174.722 159.122 174.854 159.718 175.118 160.222C175.382 160.718 175.746 161.102 176.21 161.374C176.682 161.638 177.222 161.77 177.83 161.77C178.35 161.77 178.826 161.658 179.258 161.434C179.69 161.21 180.042 160.886 180.314 160.462C180.594 160.03 180.762 159.526 180.818 158.95H177.494V158.134H181.742V159.142C181.67 159.814 181.462 160.422 181.118 160.966C180.774 161.51 180.31 161.942 179.726 162.262C179.142 162.582 178.478 162.742 177.734 162.742C176.918 162.742 176.198 162.562 175.574 162.202C174.95 161.834 174.462 161.326 174.11 160.678C173.766 160.022 173.594 159.274 173.594 158.434C173.594 157.594 173.766 156.85 174.11 156.202C174.462 155.546 174.95 155.034 175.574 154.666C176.198 154.298 176.914 154.114 177.722 154.114ZM183.858 161.854C183.97 162.206 184.026 162.534 184.026 162.838C184.026 163.254 183.922 163.586 183.714 163.834C183.506 164.09 183.194 164.218 182.778 164.218V163.75C182.978 163.75 183.122 163.694 183.21 163.582C183.306 163.478 183.354 163.31 183.354 163.078V162.97H182.742V161.854H183.858ZM189.376 159.25V162.658H188.284V154.198H190.972C191.94 154.198 192.664 154.426 193.144 154.882C193.624 155.33 193.864 155.946 193.864 156.73C193.864 157.522 193.616 158.142 193.12 158.59C192.624 159.03 191.908 159.25 190.972 159.25H189.376ZM190.876 158.338C191.54 158.338 192.016 158.198 192.304 157.918C192.6 157.638 192.748 157.242 192.748 156.73C192.748 156.202 192.6 155.802 192.304 155.53C192.016 155.25 191.54 155.11 190.876 155.11H189.376V158.338H190.876ZM201.716 162.658H200.624L196.232 155.974V162.658H195.14V154.198H196.232L200.624 160.894V154.198H201.716V162.658ZM207.312 154.114C208.296 154.114 209.12 154.358 209.784 154.846C210.456 155.334 210.908 155.998 211.14 156.838H209.988C209.788 156.326 209.452 155.914 208.98 155.602C208.516 155.29 207.964 155.134 207.324 155.134C206.748 155.134 206.232 155.27 205.776 155.542C205.32 155.806 204.96 156.186 204.696 156.682C204.44 157.178 204.312 157.762 204.312 158.434C204.312 159.122 204.444 159.718 204.708 160.222C204.972 160.718 205.336 161.102 205.8 161.374C206.272 161.638 206.812 161.77 207.42 161.77C207.94 161.77 208.416 161.658 208.848 161.434C209.28 161.21 209.632 160.886 209.904 160.462C210.184 160.03 210.352 159.526 210.408 158.95H207.084V158.134H211.332V159.142C211.26 159.814 211.052 160.422 210.708 160.966C210.364 161.51 209.9 161.942 209.316 162.262C208.732 162.582 208.068 162.742 207.324 162.742C206.508 162.742 205.788 162.562 205.164 162.202C204.54 161.834 204.052 161.326 203.7 160.678C203.356 160.022 203.184 159.274 203.184 158.434C203.184 157.594 203.356 156.85 203.7 156.202C204.052 155.546 204.54 155.034 205.164 154.666C205.788 154.298 206.504 154.114 207.312 154.114ZM213.448 161.854C213.56 162.206 213.616 162.534 213.616 162.838C213.616 163.254 213.512 163.586 213.304 163.834C213.096 164.09 212.784 164.218 212.368 164.218V163.75C212.568 163.75 212.712 163.694 212.8 163.582C212.896 163.478 212.944 163.31 212.944 163.078V162.97H212.332V161.854H213.448ZM218.966 159.25V162.658H217.874V154.198H220.562C221.53 154.198 222.254 154.426 222.734 154.882C223.214 155.33 223.454 155.946 223.454 156.73C223.454 157.522 223.206 158.142 222.71 158.59C222.214 159.03 221.498 159.25 220.562 159.25H218.966ZM220.466 158.338C221.13 158.338 221.606 158.198 221.894 157.918C222.19 157.638 222.338 157.242 222.338 156.73C222.338 156.202 222.19 155.802 221.894 155.53C221.606 155.25 221.13 155.11 220.466 155.11H218.966V158.338H220.466ZM231.858 158.422C231.858 159.278 231.686 160.026 231.342 160.666C230.998 161.298 230.49 161.79 229.818 162.142C229.154 162.486 228.354 162.658 227.418 162.658H224.73V154.198H227.418C228.354 154.198 229.154 154.37 229.818 154.714C230.49 155.05 230.998 155.538 231.342 156.178C231.686 156.81 231.858 157.558 231.858 158.422ZM227.334 161.674C228.438 161.674 229.282 161.39 229.866 160.822C230.45 160.254 230.742 159.454 230.742 158.422C230.742 157.39 230.45 156.59 229.866 156.022C229.29 155.446 228.446 155.158 227.334 155.158H225.822V161.674H227.334ZM238.119 154.198V155.086H234.423V158.014H237.555V158.866H234.423V162.658H233.331V154.198H238.119ZM245.846 155.962C246.614 155.962 247.234 156.21 247.706 156.706C248.178 157.194 248.414 157.902 248.414 158.83V162.658H247.322V158.926C247.322 158.27 247.154 157.766 246.818 157.414C246.482 157.062 246.026 156.886 245.45 156.886C244.85 156.886 244.37 157.082 244.01 157.474C243.65 157.858 243.47 158.422 243.47 159.166V162.658H242.378V156.07H243.47V157.63C243.638 157.094 243.934 156.682 244.358 156.394C244.79 156.106 245.286 155.962 245.846 155.962ZM253.077 155.986C253.709 155.986 254.273 156.122 254.769 156.394C255.273 156.666 255.665 157.058 255.945 157.57C256.233 158.082 256.377 158.682 256.377 159.37C256.377 160.058 256.233 160.658 255.945 161.17C255.665 161.674 255.273 162.062 254.769 162.334C254.273 162.606 253.709 162.742 253.077 162.742C252.445 162.742 251.877 162.606 251.373 162.334C250.877 162.062 250.485 161.674 250.197 161.17C249.909 160.658 249.765 160.058 249.765 159.37C249.765 158.682 249.909 158.082 250.197 157.57C250.485 157.058 250.877 156.666 251.373 156.394C251.877 156.122 252.445 155.986 253.077 155.986ZM253.077 156.946C252.685 156.946 252.321 157.034 251.985 157.21C251.657 157.386 251.389 157.658 251.181 158.026C250.981 158.386 250.881 158.834 250.881 159.37C250.881 159.898 250.981 160.346 251.181 160.714C251.389 161.074 251.657 161.342 251.985 161.518C252.321 161.694 252.685 161.782 253.077 161.782C253.469 161.782 253.829 161.694 254.157 161.518C254.493 161.342 254.761 161.074 254.961 160.714C255.169 160.346 255.273 159.898 255.273 159.37C255.273 158.834 255.169 158.386 254.961 158.026C254.761 157.658 254.493 157.386 254.157 157.21C253.829 157.034 253.469 156.946 253.077 156.946ZM260.944 161.698V162.658H260.128C259.456 162.658 258.952 162.498 258.616 162.178C258.288 161.858 258.124 161.322 258.124 160.57V157.018H257.14V156.07H258.124V154.426H259.228V156.07H260.932V157.018H259.228V160.594C259.228 161.018 259.304 161.31 259.456 161.47C259.616 161.622 259.888 161.698 260.272 161.698H260.944ZM273.341 155.962C274.109 155.962 274.725 156.21 275.189 156.706C275.661 157.194 275.897 157.902 275.897 158.83V162.658H274.805V158.926C274.805 158.278 274.645 157.782 274.325 157.438C274.013 157.094 273.581 156.922 273.029 156.922C272.453 156.922 271.989 157.114 271.637 157.498C271.293 157.874 271.121 158.43 271.121 159.166V162.658H270.029V158.926C270.029 158.278 269.869 157.782 269.549 157.438C269.229 157.094 268.797 156.922 268.253 156.922C267.669 156.922 267.201 157.114 266.849 157.498C266.505 157.874 266.333 158.43 266.333 159.166V162.658H265.241V156.07H266.333V157.57C266.493 157.05 266.777 156.654 267.185 156.382C267.601 156.102 268.077 155.962 268.613 155.962C269.173 155.962 269.657 156.106 270.065 156.394C270.481 156.674 270.777 157.09 270.953 157.642C271.137 157.106 271.445 156.694 271.877 156.406C272.309 156.11 272.797 155.962 273.341 155.962ZM280.581 155.986C281.213 155.986 281.777 156.122 282.273 156.394C282.777 156.666 283.169 157.058 283.449 157.57C283.737 158.082 283.881 158.682 283.881 159.37C283.881 160.058 283.737 160.658 283.449 161.17C283.169 161.674 282.777 162.062 282.273 162.334C281.777 162.606 281.213 162.742 280.581 162.742C279.949 162.742 279.381 162.606 278.877 162.334C278.381 162.062 277.989 161.674 277.701 161.17C277.413 160.658 277.269 160.058 277.269 159.37C277.269 158.682 277.413 158.082 277.701 157.57C277.989 157.058 278.381 156.666 278.877 156.394C279.381 156.122 279.949 155.986 280.581 155.986ZM280.581 156.946C280.189 156.946 279.825 157.034 279.489 157.21C279.161 157.386 278.893 157.658 278.685 158.026C278.485 158.386 278.385 158.834 278.385 159.37C278.385 159.898 278.485 160.346 278.685 160.714C278.893 161.074 279.161 161.342 279.489 161.518C279.825 161.694 280.189 161.782 280.581 161.782C280.973 161.782 281.333 161.694 281.661 161.518C281.997 161.342 282.265 161.074 282.465 160.714C282.673 160.346 282.777 159.898 282.777 159.37C282.777 158.834 282.673 158.386 282.465 158.026C282.265 157.658 281.997 157.386 281.661 157.21C281.333 157.034 280.973 156.946 280.581 156.946ZM286.396 157.402C286.612 156.946 286.928 156.594 287.344 156.346C287.76 156.09 288.256 155.962 288.832 155.962V157.15H288.496C287.88 157.15 287.376 157.31 286.984 157.63C286.592 157.942 286.396 158.462 286.396 159.19V162.658H285.304V156.07H286.396V157.402ZM295.969 158.998C295.969 159.23 295.953 159.43 295.921 159.598H290.653C290.677 160.35 290.889 160.914 291.289 161.29C291.697 161.666 292.193 161.854 292.777 161.854C293.305 161.854 293.745 161.722 294.097 161.458C294.457 161.186 294.677 160.826 294.757 160.378H295.921C295.841 160.834 295.661 161.242 295.381 161.602C295.109 161.962 294.753 162.242 294.313 162.442C293.873 162.642 293.377 162.742 292.825 162.742C292.193 162.742 291.633 162.606 291.145 162.334C290.657 162.062 290.273 161.674 289.993 161.17C289.721 160.658 289.585 160.058 289.585 159.37C289.585 158.682 289.721 158.082 289.993 157.57C290.273 157.058 290.657 156.666 291.145 156.394C291.633 156.122 292.193 155.986 292.825 155.986C293.465 155.986 294.021 156.122 294.493 156.394C294.973 156.666 295.337 157.03 295.585 157.486C295.841 157.942 295.969 158.446 295.969 158.998ZM294.865 159.07C294.889 158.582 294.809 158.174 294.625 157.846C294.441 157.518 294.189 157.274 293.869 157.114C293.549 156.954 293.201 156.874 292.825 156.874C292.225 156.874 291.721 157.062 291.313 157.438C290.905 157.806 290.685 158.35 290.653 159.07H294.865ZM303.506 161.698V162.658H302.69C302.018 162.658 301.514 162.498 301.178 162.178C300.85 161.858 300.686 161.322 300.686 160.57V157.018H299.702V156.07H300.686V154.426H301.79V156.07H303.494V157.018H301.79V160.594C301.79 161.018 301.866 161.31 302.018 161.47C302.178 161.622 302.45 161.698 302.834 161.698H303.506ZM308.307 155.962C309.075 155.962 309.695 156.21 310.167 156.706C310.639 157.194 310.875 157.902 310.875 158.83V162.658H309.783V158.926C309.783 158.27 309.615 157.766 309.279 157.414C308.943 157.062 308.487 156.886 307.911 156.886C307.311 156.886 306.831 157.082 306.471 157.474C306.111 157.858 305.931 158.422 305.931 159.166V162.658H304.839V153.778H305.931V157.63C306.099 157.094 306.395 156.682 306.819 156.394C307.251 156.106 307.747 155.962 308.307 155.962ZM315.25 155.986C315.89 155.986 316.43 156.146 316.87 156.466C317.318 156.786 317.63 157.214 317.806 157.75V156.07H318.898V162.658H317.806V160.978C317.63 161.514 317.318 161.942 316.87 162.262C316.43 162.582 315.89 162.742 315.25 162.742C314.666 162.742 314.146 162.606 313.69 162.334C313.234 162.062 312.874 161.674 312.61 161.17C312.354 160.658 312.226 160.058 312.226 159.37C312.226 158.682 312.354 158.082 312.61 157.57C312.874 157.058 313.234 156.666 313.69 156.394C314.146 156.122 314.666 155.986 315.25 155.986ZM315.562 156.958C314.89 156.958 314.35 157.174 313.942 157.606C313.542 158.03 313.342 158.618 313.342 159.37C313.342 160.122 313.542 160.714 313.942 161.146C314.35 161.57 314.89 161.782 315.562 161.782C315.994 161.782 316.378 161.682 316.714 161.482C317.058 161.282 317.326 161.002 317.518 160.642C317.71 160.274 317.806 159.85 317.806 159.37C317.806 158.89 317.71 158.466 317.518 158.098C317.326 157.73 317.058 157.45 316.714 157.258C316.378 157.058 315.994 156.958 315.562 156.958ZM324.104 155.962C324.872 155.962 325.492 156.21 325.964 156.706C326.436 157.194 326.672 157.902 326.672 158.83V162.658H325.58V158.926C325.58 158.27 325.412 157.766 325.076 157.414C324.74 157.062 324.284 156.886 323.708 156.886C323.108 156.886 322.628 157.082 322.268 157.474C321.908 157.858 321.728 158.422 321.728 159.166V162.658H320.636V156.07H321.728V157.63C321.896 157.094 322.192 156.682 322.616 156.394C323.048 156.106 323.544 155.962 324.104 155.962ZM334.024 153.97C334.568 153.97 335.036 154.066 335.428 154.258C335.82 154.45 336.116 154.714 336.316 155.05C336.516 155.386 336.616 155.766 336.616 156.19C336.616 156.718 336.46 157.162 336.148 157.522C335.844 157.882 335.396 158.098 334.804 158.17V158.242C335.42 158.402 335.9 158.65 336.244 158.986C336.596 159.322 336.772 159.786 336.772 160.378C336.772 161.074 336.54 161.642 336.076 162.082C335.612 162.522 334.944 162.742 334.072 162.742C333.2 162.742 332.492 162.518 331.948 162.07C331.412 161.614 331.096 160.95 331 160.078H332.08C332.152 160.606 332.352 161.026 332.68 161.338C333.016 161.65 333.468 161.806 334.036 161.806C334.572 161.806 334.984 161.67 335.272 161.398C335.56 161.118 335.704 160.758 335.704 160.318C335.704 159.79 335.496 159.39 335.08 159.118C334.672 158.838 334.088 158.698 333.328 158.698H333.04V157.786H333.328C334.8 157.786 335.536 157.294 335.536 156.31C335.536 155.878 335.4 155.534 335.128 155.278C334.856 155.022 334.48 154.894 334 154.894C333.52 154.894 333.116 155.034 332.788 155.314C332.46 155.586 332.268 155.99 332.212 156.526H331.144C331.2 155.726 331.476 155.102 331.972 154.654C332.476 154.198 333.16 153.97 334.024 153.97ZM346.85 154.342V162.658H345.758V156.022L343.106 162.658H342.134L339.47 156.046V162.658H338.378V154.342H339.686L342.638 161.326L345.542 154.342H346.85ZM352.725 158.278C353.245 158.39 353.665 158.638 353.985 159.022C354.313 159.406 354.477 159.858 354.477 160.378C354.477 161.066 354.241 161.618 353.769 162.034C353.305 162.45 352.629 162.658 351.741 162.658H348.597V154.198H351.693C352.541 154.198 353.185 154.386 353.625 154.762C354.065 155.138 354.285 155.654 354.285 156.31C354.285 156.854 354.137 157.294 353.841 157.63C353.553 157.966 353.181 158.182 352.725 158.278ZM349.689 157.906H351.513C352.049 157.906 352.457 157.782 352.737 157.534C353.025 157.286 353.169 156.938 353.169 156.49C353.169 156.058 353.029 155.718 352.749 155.47C352.469 155.222 352.041 155.098 351.465 155.098H349.689V157.906ZM351.537 161.746C352.113 161.746 352.557 161.614 352.869 161.35C353.189 161.086 353.349 160.714 353.349 160.234C353.349 159.762 353.185 159.394 352.857 159.13C352.537 158.858 352.089 158.722 351.513 158.722H349.689V161.746H351.537Z" fill="#BAC3D2"/>
<rect x="1" y="1" width="449" height="190" rx="8" stroke="#DEDFEC" stroke-width="2" stroke-linecap="round" stroke-linejoin="round" stroke-dasharray="8 8"/>
<defs>
<filter id="filter0_d_264_345" x="153.095" y="27.7549" width="84.7173" height="86.502" filterUnits="userSpaceOnUse" color-interpolation-filters="sRGB">
<feFlood flood-opacity="0" result="BackgroundImageFix"/>
<feColorMatrix in="SourceAlpha" type="matrix" values="0 0 0 0 0 0 0 0 0 0 0 0 0 0 0 0 0 0 127 0" result="hardAlpha"/>
<feOffset dy="5"/>
<feGaussianBlur stdDeviation="10"/>
<feColorMatrix type="matrix" values="0 0 0 0 0.0509804 0 0 0 0 0.6 0 0 0 0 1 0 0 0 0.11 0"/>
<feBlend mode="normal" in2="BackgroundImageFix" result="effect1_dropShadow_264_345"/>
<feBlend mode="normal" in="SourceGraphic" in2="effect1_dropShadow_264_345" result="shape"/>
</filter>
<filter id="filter1_d_264_345" x="187.273" y="33.9795" width="90.7554" height="90.2295" filterUnits="userSpaceOnUse" color-interpolation-filters="sRGB">
<feFlood flood-opacity="0" result="BackgroundImageFix"/>
<feColorMatrix in="SourceAlpha" type="matrix" values="0 0 0 0 0 0 0 0 0 0 0 0 0 0 0 0 0 0 127 0" result="hardAlpha"/>
<feOffset dy="5"/>
<feGaussianBlur stdDeviation="10"/>
<feColorMatrix type="matrix" values="0 0 0 0 0.0509804 0 0 0 0 0.6 0 0 0 0 1 0 0 0 0.11 0"/>
<feBlend mode="normal" in2="BackgroundImageFix" result="effect1_dropShadow_264_345"/>
<feBlend mode="normal" in="SourceGraphic" in2="effect1_dropShadow_264_345" result="shape"/>
</filter>
<filter id="filter2_d_264_345" x="192.786" y="31.4561" width="100.359" height="98.9961" filterUnits="userSpaceOnUse" color-interpolation-filters="sRGB">
<feFlood flood-opacity="0" result="BackgroundImageFix"/>
<feColorMatrix in="SourceAlpha" type="matrix" values="0 0 0 0 0 0 0 0 0 0 0 0 0 0 0 0 0 0 127 0" result="hardAlpha"/>
<feOffset dy="11"/>
<feGaussianBlur stdDeviation="15"/>
<feColorMatrix type="matrix" values="0 0 0 0 0 0 0 0 0 0 0 0 0 0 0 0 0 0 0.08 0"/>
<feBlend mode="normal" in2="BackgroundImageFix" result="effect1_dropShadow_264_345"/>
<feBlend mode="normal" in="SourceGraphic" in2="effect1_dropShadow_264_345" result="shape"/>
</filter>
<linearGradient id="paint0_linear_264_345" x1="235.622" y1="47.3119" x2="229.715" y2="100.242" gradientUnits="userSpaceOnUse">
<stop stop-color="#F1F2F9"/>
<stop offset="0.9964" stop-color="white"/>
</linearGradient>
<linearGradient id="paint1_linear_264_345" x1="257.886" y1="47.5199" x2="228.364" y2="91.8476" gradientUnits="userSpaceOnUse">
<stop stop-color="#F1F2F9"/>
<stop offset="0.9964" stop-color="#DBDFE8"/>
</linearGradient>
</defs>
</svg>
