<svg width="26" height="26" viewBox="0 0 26 26" fill="none" xmlns="http://www.w3.org/2000/svg">
<g clip-path="url(#clip0_2_5681)">
<path d="M7.2788 25.8549C5.79204 25.7873 4.98439 25.5399 4.4472 25.3304C3.73539 25.0532 3.22792 24.7233 2.6937 24.1899C2.15947 23.6564 1.82883 23.1489 1.55318 22.4371C1.34365 21.8999 1.09623 21.0923 1.02861 19.6055C0.954313 17.9984 0.939453 17.5162 0.939453 13.4445C0.939453 9.37279 0.955799 8.89132 1.02787 7.28271C1.09548 5.79595 1.34439 4.98978 1.55243 4.4511C1.82958 3.7393 2.16022 3.23182 2.69295 2.69686C3.22643 2.16338 3.73391 1.832 4.44645 1.55634C4.98365 1.34681 5.7913 1.09939 7.27806 1.03178C8.88593 0.95822 9.36888 0.943359 13.4391 0.943359C17.5108 0.943359 17.9922 0.959706 19.6009 1.03178C21.0876 1.09939 21.8938 1.3483 22.4325 1.55634C23.1443 1.832 23.6517 2.16338 24.186 2.69686C24.7202 3.23034 25.0493 3.73856 25.3265 4.45036C25.536 4.98755 25.7834 5.7952 25.851 7.28196C25.9246 8.89058 25.9395 9.37205 25.9395 13.4437C25.9395 17.5139 25.9246 17.9969 25.851 19.6055C25.7834 21.0923 25.5345 21.8999 25.3265 22.4371C25.0493 23.1489 24.7194 23.6564 24.186 24.1899C23.6525 24.7233 23.1443 25.0532 22.4325 25.3304C21.8953 25.5399 21.0876 25.7873 19.6009 25.8549C17.9937 25.9285 17.5108 25.9434 13.4391 25.9434C9.36888 25.9434 8.88593 25.9292 7.2788 25.8549Z" fill="#6D71F9"/>
<path d="M7.2788 25.8549C5.79204 25.7873 4.98439 25.5399 4.4472 25.3304C3.73539 25.0532 3.22792 24.7233 2.6937 24.1899C2.15947 23.6564 1.82883 23.1489 1.55318 22.4371C1.34365 21.8999 1.09623 21.0923 1.02861 19.6055C0.954313 17.9984 0.939453 17.5162 0.939453 13.4445C0.939453 9.37279 0.955799 8.89132 1.02787 7.28271C1.09548 5.79595 1.34439 4.98978 1.55243 4.4511C1.82958 3.7393 2.16022 3.23182 2.69295 2.69686C3.22643 2.16338 3.73391 1.832 4.44645 1.55634C4.98365 1.34681 5.7913 1.09939 7.27806 1.03178C8.88593 0.95822 9.36888 0.943359 13.4391 0.943359C17.5108 0.943359 17.9922 0.959706 19.6009 1.03178C21.0876 1.09939 21.8938 1.3483 22.4325 1.55634C23.1443 1.832 23.6517 2.16338 24.186 2.69686C24.7202 3.23034 25.0493 3.73856 25.3265 4.45036C25.536 4.98755 25.7834 5.7952 25.851 7.28196C25.9246 8.89058 25.9395 9.37205 25.9395 13.4437C25.9395 17.5139 25.9246 17.9969 25.851 19.6055C25.7834 21.0923 25.5345 21.8999 25.3265 22.4371C25.0493 23.1489 24.7194 23.6564 24.186 24.1899C23.6525 24.7233 23.1443 25.0532 22.4325 25.3304C21.8953 25.5399 21.0876 25.7873 19.6009 25.8549C17.9937 25.9285 17.5108 25.9434 13.4391 25.9434C9.36888 25.9434 8.88593 25.9292 7.2788 25.8549Z" fill="#6D71F9"/>
<path d="M10.37 13.4966C10.37 11.7869 11.7556 10.4005 13.4653 10.4005C15.1751 10.4005 16.5615 11.7869 16.5615 13.4966C16.5615 15.2064 15.1751 16.5928 13.4653 16.5928C11.7556 16.5928 10.37 15.2064 10.37 13.4966ZM8.69627 13.4966C8.69627 16.1306 10.8314 18.2657 13.4653 18.2657C16.0993 18.2657 18.2344 16.1306 18.2344 13.4966C18.2344 10.8627 16.0993 8.72758 13.4653 8.72758C10.8314 8.72758 8.69634 10.8625 8.69634 13.4966M17.3088 8.53848C17.3087 8.75891 17.374 8.97442 17.4964 9.15775C17.6187 9.34107 17.7928 9.48399 17.9964 9.56843C18.2 9.65287 18.4241 9.67503 18.6403 9.63211C18.8565 9.58919 19.0551 9.48313 19.211 9.32732C19.367 9.17152 19.4732 8.97297 19.5163 8.75679C19.5594 8.54062 19.5374 8.31652 19.4531 8.11283C19.3689 7.90915 19.2261 7.73503 19.0428 7.61249C18.8596 7.48995 18.6442 7.4245 18.4237 7.42441H18.4233C18.1278 7.42455 17.8445 7.54196 17.6355 7.75084C17.4265 7.95973 17.309 8.24301 17.3088 8.53848ZM9.71315 21.0566C8.80764 21.0154 8.31547 20.8645 7.9884 20.7371C7.55478 20.5683 7.24539 20.3672 6.9201 20.0424C6.59481 19.7176 6.39346 19.4085 6.22539 18.9748C6.09789 18.6479 5.94706 18.1556 5.9059 17.2501C5.86087 16.2711 5.85188 15.977 5.85188 13.4968C5.85188 11.0166 5.86161 10.7233 5.9059 9.74349C5.94713 8.83799 6.09908 8.34664 6.22539 8.01875C6.3942 7.58513 6.59526 7.27574 6.9201 6.95045C7.24495 6.62516 7.55404 6.4238 7.9884 6.25574C8.31532 6.12824 8.80764 5.97741 9.71315 5.93624C10.6921 5.89122 10.9862 5.88223 13.4653 5.88223C15.9445 5.88223 16.2388 5.89181 17.2186 5.93639C18.1242 5.97763 18.6155 6.12957 18.9434 6.25588C19.377 6.42395 19.6864 6.62575 20.0117 6.9506C20.337 7.27544 20.5376 7.58527 20.7064 8.01889C20.8339 8.34582 20.9847 8.83814 21.0259 9.74364C21.0709 10.7234 21.0799 11.0167 21.0799 13.4969C21.0799 15.9772 21.0709 16.2704 21.0259 17.2503C20.9847 18.1558 20.8331 18.6479 20.7064 18.975C20.5376 19.4086 20.3365 19.718 20.0117 20.0426C19.6868 20.3671 19.377 20.5685 18.9434 20.7373C18.6165 20.8648 18.1242 21.0156 17.2186 21.0568C16.2397 21.1018 15.9456 21.1108 13.4653 21.1108C10.9851 21.1108 10.6918 21.1018 9.71315 21.0568M9.63625 4.26529C8.64752 4.31032 7.97191 4.46709 7.38188 4.69668C6.77121 4.93378 6.25355 5.25186 5.73664 5.76795C5.21973 6.28404 4.90246 6.80177 4.66537 7.41319C4.43578 8.00359 4.27901 8.67883 4.23398 9.66756C4.18821 10.6578 4.17773 10.9744 4.17773 13.4966C4.17773 16.0189 4.18821 16.3355 4.23398 17.3257C4.27901 18.3145 4.43578 18.9897 4.66537 19.5801C4.90246 20.1908 5.2198 20.7095 5.73664 21.2253C6.25348 21.7412 6.77046 22.0589 7.38188 22.2966C7.97302 22.5262 8.64752 22.683 9.63625 22.728C10.627 22.773 10.9431 22.7843 13.4653 22.7843C15.9876 22.7843 16.3042 22.7738 17.2944 22.728C18.2832 22.683 18.9584 22.5262 19.5488 22.2966C20.1595 22.0589 20.6771 21.7414 21.194 21.2253C21.7109 20.7093 22.0275 20.1908 22.2653 19.5801C22.4949 18.9897 22.6524 18.3145 22.6967 17.3257C22.7417 16.3347 22.7522 16.0189 22.7522 13.4966C22.7522 10.9744 22.7417 10.6578 22.6967 9.66756C22.6517 8.67876 22.4949 8.00322 22.2653 7.41319C22.0275 6.80252 21.7101 6.28486 21.194 5.76795C20.6779 5.25104 20.1595 4.93378 19.5495 4.69668C18.9584 4.46709 18.2832 4.30957 17.2952 4.26529C16.3047 4.22004 15.9883 4.20905 13.4665 4.20905C10.9446 4.20905 10.6274 4.21952 9.63662 4.26529" fill="white"/>
</g>
<defs>
<clipPath id="clip0_2_5681">
<rect width="25" height="25" fill="white" transform="translate(0.939453 0.943359)"/>
</clipPath>
</defs>
</svg>
