<svg width="25" height="26" viewBox="0 0 25 26" fill="none" xmlns="http://www.w3.org/2000/svg">
<g clip-path="url(#clip0_2_5676)">
<path d="M-0.00683594 2.7474C-0.00683594 1.76007 0.814466 0.95874 1.82701 0.95874H22.9713C23.9842 0.95874 24.8052 1.76007 24.8052 2.7474V24.1396C24.8052 25.1273 23.9842 25.928 22.9713 25.928H1.82701C0.814466 25.928 -0.00683594 25.1273 -0.00683594 24.14V2.74708V2.7474Z" fill="#6D71F9"/>
<path d="M8.37013 20.3621V11.1094H5.29468V20.3621H8.3704H8.37013ZM6.83294 9.84636C7.90521 9.84636 8.57276 9.13581 8.57276 8.2479C8.5526 7.33983 7.90521 6.64917 6.85336 6.64917C5.80071 6.64917 5.11328 7.33983 5.11328 8.2479C5.11328 9.13581 5.78056 9.84636 6.81278 9.84636H6.83267H6.83294ZM10.0723 20.3621H13.1475V15.1956C13.1475 14.9193 13.1677 14.6425 13.2488 14.4453C13.4711 13.8925 13.9771 13.3203 14.8268 13.3203C15.9394 13.3203 16.3847 14.1688 16.3847 15.4127V20.3621H19.4599V15.0569C19.4599 12.215 17.9429 10.8926 15.9195 10.8926C14.2606 10.8926 13.5321 11.8197 13.1273 12.4512H13.1478V11.1097H10.0726C10.1126 11.9777 10.0723 20.3624 10.0723 20.3624V20.3621Z" fill="white"/>
</g>
<defs>
<clipPath id="clip0_2_5676">
<rect y="0.95874" width="24.8184" height="24.9692" rx="5.17049" fill="white"/>
</clipPath>
</defs>
</svg>
