<svg width="290" height="83" viewBox="0 0 290 83" fill="none" xmlns="http://www.w3.org/2000/svg">
<path d="M72.071 29.2897L72.0117 22.0529H90.3412C90.5784 22.4088 90.7959 22.9031 90.9937 23.5358C91.1914 24.1686 91.2903 24.8408 91.2903 25.5527C91.2903 26.8181 90.9937 27.7672 90.4005 28.4C89.8468 28.9931 89.0757 29.2897 88.0871 29.2897H72.071ZM80.4349 22.0529L80.4943 29.2897H62.1648C61.888 28.9338 61.6507 28.4395 61.4529 27.8068C61.2948 27.174 61.2157 26.5018 61.2157 25.7899C61.2157 24.4849 61.4925 23.5358 62.0461 22.9426C62.6393 22.3494 63.4105 22.0529 64.3596 22.0529H80.4349ZM71.5964 27.6881H80.6722V57.9407C80.2768 58.0593 79.6836 58.1582 78.8927 58.2373C78.1017 58.3559 77.291 58.4152 76.4606 58.4152C74.681 58.4152 73.4156 58.0989 72.6642 57.4661C71.9524 56.8334 71.5964 55.7261 71.5964 54.1443V27.6881ZM102.372 37.1791V44.594H93.5926V36.1114C93.5926 35.0041 93.8496 34.0748 94.3637 33.3234C94.9174 32.5325 95.6687 31.8404 96.6178 31.2473C97.9228 30.4563 99.4849 29.8434 101.304 29.4084C103.163 28.9338 105.1 28.6966 107.117 28.6966C111.151 28.6966 113.168 30.0411 113.168 32.7302C113.168 33.363 113.069 33.9561 112.871 34.5098C112.713 35.0634 112.515 35.538 112.278 35.9334C111.883 35.8543 111.388 35.795 110.795 35.7555C110.241 35.6764 109.628 35.6368 108.956 35.6368C107.77 35.6368 106.583 35.7753 105.397 36.0521C104.211 36.3289 103.202 36.7046 102.372 37.1791ZM93.5926 42.3399L102.372 42.5178V57.9407C101.976 58.0593 101.423 58.1582 100.711 58.2373C99.999 58.3559 99.2278 58.4152 98.3974 58.4152C96.7365 58.4152 95.5105 58.1186 94.7196 57.5255C93.9683 56.9323 93.5926 55.8645 93.5926 54.3222V42.3399ZM128.508 52.3647C129.417 52.3647 130.307 52.2856 131.177 52.1274C132.087 51.9297 132.739 51.7122 133.135 51.4749V45.7803L128.152 46.2549C126.807 46.334 125.739 46.6108 124.949 47.0854C124.158 47.5599 123.762 48.2717 123.762 49.2208C123.762 50.1699 124.138 50.9411 124.889 51.5343C125.641 52.0879 126.847 52.3647 128.508 52.3647ZM128.152 28.6372C132.265 28.6372 135.547 29.5072 137.999 31.2473C140.45 32.9477 141.676 35.5973 141.676 39.196V52.6613C141.676 53.65 141.419 54.4606 140.905 55.0934C140.391 55.6866 139.739 56.2007 138.948 56.6357C137.761 57.3475 136.278 57.9011 134.499 58.2966C132.759 58.7316 130.762 58.9491 128.508 58.9491C124.474 58.9491 121.251 58.1582 118.839 56.5764C116.466 54.9945 115.28 52.6415 115.28 49.5174C115.28 46.8283 116.11 44.7719 117.771 43.3483C119.432 41.8851 121.904 40.9953 125.186 40.6789L133.075 39.8485V39.1366C133.075 37.7921 132.541 36.8232 131.474 36.23C130.445 35.6368 128.962 35.3402 127.025 35.3402C125.522 35.3402 124.039 35.5182 122.576 35.8741C121.152 36.23 119.867 36.6453 118.72 37.1198C118.246 36.8034 117.83 36.3289 117.474 35.6962C117.158 35.0239 117 34.3318 117 33.62C117 31.9591 117.909 30.7529 119.728 30.0016C120.875 29.527 122.2 29.1909 123.703 28.9931C125.245 28.7559 126.728 28.6372 128.152 28.6372ZM175.678 39.5519V45.1278H166.84V39.8485C166.84 38.3853 166.405 37.3175 165.535 36.6453C164.704 35.9334 163.597 35.5775 162.213 35.5775C161.224 35.5775 160.315 35.7159 159.484 35.9928C158.654 36.23 157.902 36.5266 157.23 36.8825V45.1278H148.451V35.8741C148.451 34.8855 148.649 34.0748 149.044 33.442C149.479 32.7698 150.092 32.1766 150.883 31.6625C152.148 30.7925 153.77 30.0807 155.747 29.527C157.724 28.9338 159.899 28.6372 162.272 28.6372C166.543 28.6372 169.845 29.5863 172.178 31.4845C174.511 33.3432 175.678 36.0323 175.678 39.5519ZM148.451 42.3992H157.23V57.9407C156.835 58.0593 156.281 58.1582 155.569 58.2373C154.857 58.3559 154.086 58.4152 153.256 58.4152C151.595 58.4152 150.369 58.1186 149.578 57.5255C148.826 56.9323 148.451 55.8645 148.451 54.3222V42.3992ZM166.84 42.3992H175.678V57.9407C175.283 58.0593 174.729 58.1582 174.017 58.2373C173.305 58.3559 172.534 58.4152 171.704 58.4152C170.043 58.4152 168.817 58.1186 168.026 57.5255C167.235 56.9323 166.84 55.8645 166.84 54.3222V42.3992ZM205.646 49.6954C205.646 52.5822 204.558 54.8561 202.383 56.517C200.208 58.1384 197.044 58.9491 192.892 58.9491C189.649 58.9491 186.98 58.4745 184.884 57.5255C182.788 56.5764 181.74 55.1725 181.74 53.3138C181.74 52.4834 181.918 51.7715 182.274 51.1783C182.63 50.5456 183.085 50.0513 183.638 49.6954C184.746 50.3281 186.031 50.9213 187.494 51.4749C188.997 51.989 190.697 52.2461 192.596 52.2461C195.482 52.2461 196.926 51.4156 196.926 49.7547C196.926 49.0429 196.669 48.4892 196.155 48.0938C195.641 47.6588 194.79 47.3424 193.604 47.1447L191.113 46.5515C187.949 45.8792 185.576 44.851 183.994 43.4669C182.452 42.0433 181.681 40.1055 181.681 37.6537C181.681 34.8855 182.788 32.6907 185.003 31.0693C187.257 29.4084 190.282 28.5779 194.078 28.5779C195.977 28.5779 197.697 28.7756 199.239 29.1711C200.821 29.527 202.067 30.1004 202.976 30.8913C203.886 31.6427 204.341 32.5918 204.341 33.7386C204.341 34.5296 204.182 35.2216 203.866 35.8148C203.55 36.408 203.134 36.9023 202.62 37.2978C202.185 37.0209 201.513 36.7244 200.604 36.408C199.734 36.0916 198.765 35.8346 197.697 35.6368C196.669 35.4391 195.7 35.3402 194.79 35.3402C193.367 35.3402 192.259 35.538 191.468 35.9334C190.678 36.2893 190.282 36.8628 190.282 37.6537C190.282 38.1678 190.5 38.6225 190.935 39.018C191.409 39.3739 192.22 39.6705 193.367 39.9078L195.739 40.501C199.259 41.2919 201.79 42.4387 203.332 43.9415C204.874 45.4047 205.646 47.3226 205.646 49.6954ZM212.612 42.3399L217.358 43.0517V57.8814C217.16 57.9605 216.864 58.0395 216.468 58.1186C216.073 58.2373 215.638 58.2966 215.163 58.2966C214.333 58.2966 213.7 58.1384 213.265 57.822C212.83 57.4661 212.612 56.9125 212.612 56.1611V42.3399ZM217.358 45.3058L212.612 44.6533V19.5615C212.81 19.4824 213.107 19.4033 213.502 19.3242C213.937 19.2056 214.372 19.1462 214.807 19.1462C215.677 19.1462 216.31 19.3242 216.705 19.6801C217.14 19.9965 217.358 20.5303 217.358 21.2817V45.3058ZM226.436 21.9342C226.436 21.1038 226.733 20.4117 227.326 19.8581C227.919 19.2649 228.651 18.9683 229.521 18.9683C230.431 18.9683 231.162 19.2649 231.716 19.8581C232.269 20.4117 232.546 21.1038 232.546 21.9342C232.546 22.7647 232.269 23.4765 231.716 24.0697C231.162 24.6233 230.431 24.9002 229.521 24.9002C228.651 24.9002 227.919 24.6233 227.326 24.0697C226.733 23.4765 226.436 22.7647 226.436 21.9342ZM227.148 42.3399H231.894V57.8814C231.696 57.9605 231.399 58.0395 231.004 58.1186C230.608 58.2373 230.173 58.2966 229.699 58.2966C228.868 58.2966 228.236 58.1384 227.801 57.822C227.366 57.4661 227.148 56.9125 227.148 56.1611V42.3399ZM231.894 44.6533H227.148V30.7134C227.346 30.6343 227.643 30.5552 228.038 30.4761C228.473 30.3575 228.928 30.2982 229.402 30.2982C230.233 30.2982 230.846 30.4761 231.241 30.832C231.676 31.1484 231.894 31.702 231.894 32.4929V44.6533ZM241.219 42.3399H245.965V50.5258C245.965 52.1077 246.42 53.2347 247.329 53.907C248.239 54.5397 249.484 54.8561 251.066 54.8561C251.738 54.8561 252.49 54.7375 253.32 54.5002C254.151 54.2629 254.843 53.9861 255.396 53.6697C255.634 53.907 255.851 54.2036 256.049 54.5595C256.247 54.9154 256.346 55.3307 256.346 55.8052C256.346 56.6752 255.831 57.387 254.803 57.9407C253.775 58.4943 252.351 58.7711 250.532 58.7711C247.764 58.7711 245.51 58.1582 243.77 56.9323C242.069 55.7063 241.219 53.6697 241.219 50.8224V42.3399ZM243.651 35.103V31.1879H255.693C255.812 31.3461 255.93 31.6032 256.049 31.9591C256.168 32.315 256.227 32.6907 256.227 33.0861C256.227 33.7189 256.069 34.2132 255.752 34.5691C255.436 34.925 255.001 35.103 254.447 35.103H243.651ZM245.965 44.1194H241.219V22.646C241.417 22.5669 241.714 22.4879 242.109 22.4088C242.544 22.2901 242.999 22.2308 243.473 22.2308C244.304 22.2308 244.917 22.4088 245.312 22.7647C245.747 23.081 245.965 23.6149 245.965 24.3663V44.1194ZM264.082 47.3226L263.845 43.5855L281.759 41.1535C281.601 38.9785 280.849 37.1989 279.505 35.8148C278.16 34.3911 276.302 33.6793 273.929 33.6793C271.477 33.6793 269.44 34.5691 267.819 36.3487C266.237 38.0887 265.446 40.5998 265.446 43.8821V45.1872C265.723 48.3508 266.751 50.7631 268.531 52.424C270.35 54.0454 272.822 54.8561 275.946 54.8561C277.607 54.8561 279.109 54.5793 280.454 54.0256C281.799 53.472 282.866 52.8788 283.657 52.2461C284.092 52.5229 284.428 52.859 284.666 53.2545C284.942 53.6104 285.081 54.0256 285.081 54.5002C285.081 55.2516 284.646 55.9634 283.776 56.6357C282.945 57.2684 281.818 57.7825 280.395 58.178C279.011 58.5734 277.448 58.7711 275.708 58.7711C272.663 58.7711 270.014 58.2175 267.76 57.1102C265.545 56.0029 263.825 54.3618 262.599 52.1868C261.413 49.9722 260.819 47.2831 260.819 44.1194C260.819 41.8653 261.136 39.8682 261.769 38.1282C262.441 36.3487 263.35 34.8459 264.497 33.62C265.684 32.3941 267.087 31.4648 268.709 30.832C270.33 30.1597 272.09 29.8236 273.988 29.8236C276.401 29.8236 278.516 30.3377 280.335 31.3659C282.194 32.3941 283.637 33.8375 284.666 35.6962C285.733 37.5153 286.267 39.6112 286.267 41.9839C286.267 42.854 286.069 43.4867 285.674 43.8821C285.279 44.2381 284.725 44.4556 284.013 44.5346L264.082 47.3226Z" fill="#1C166A"/>
<path d="M27.6591 16.9493C28.3832 15.6951 30.1935 15.6951 30.9177 16.9493L48.025 46.5802C48.7492 47.8344 47.844 49.4021 46.3958 49.4021H12.181C10.7328 49.4021 9.82761 47.8344 10.5517 46.5802L27.6591 16.9493Z" fill="#130F49"/>
<g filter="url(#filter0_d_2_5620)">
<path d="M27.6591 35.7623C28.3832 34.5081 30.1935 34.5081 30.9177 35.7623L48.025 65.3932C48.7492 66.6474 47.844 68.2152 46.3958 68.2152H12.181C10.7328 68.2152 9.82761 66.6474 10.5517 65.3932L27.6591 35.7623Z" fill="#1C166A"/>
</g>
<defs>
<filter id="filter0_d_2_5620" x="0.890254" y="16.0084" width="56.7966" height="52.2067" filterUnits="userSpaceOnUse" color-interpolation-filters="sRGB">
<feFlood flood-opacity="0" result="BackgroundImageFix"/>
<feColorMatrix in="SourceAlpha" type="matrix" values="0 0 0 0 0 0 0 0 0 0 0 0 0 0 0 0 0 0 127 0" result="hardAlpha"/>
<feOffset dy="-9.40662"/>
<feGaussianBlur stdDeviation="4.70331"/>
<feComposite in2="hardAlpha" operator="out"/>
<feColorMatrix type="matrix" values="0 0 0 0 0 0 0 0 0 0 0 0 0 0 0 0 0 0 0.37 0"/>
<feBlend mode="normal" in2="BackgroundImageFix" result="effect1_dropShadow_2_5620"/>
<feBlend mode="normal" in="SourceGraphic" in2="effect1_dropShadow_2_5620" result="shape"/>
</filter>
</defs>
</svg>
