<svg width="268" height="265" viewBox="0 0 268 265" fill="none" xmlns="http://www.w3.org/2000/svg">
<g opacity="0.5" clip-path="url(#clip0_2_5621)">
<path d="M174.694 1.44306C178.696 -5.48819 188.7 -5.48818 192.702 1.44308L287.244 165.194C291.246 172.125 286.243 180.789 278.24 180.789H89.1565C81.153 180.789 76.1508 172.125 80.1526 165.194L174.694 1.44306Z" fill="#272848"/>
<g filter="url(#filter0_d_2_5621)">
<path d="M174.694 105.412C178.696 98.4806 188.7 98.4806 192.702 105.412L287.244 269.163C291.246 276.094 286.243 284.758 278.24 284.758H89.1565C81.153 284.758 76.1508 276.094 80.1526 269.163L174.694 105.412Z" fill="#1C166A"/>
</g>
</g>
<defs>
<filter id="filter0_d_2_5621" x="26.7597" y="-3.75546" width="313.877" height="288.514" filterUnits="userSpaceOnUse" color-interpolation-filters="sRGB">
<feFlood flood-opacity="0" result="BackgroundImageFix"/>
<feColorMatrix in="SourceAlpha" type="matrix" values="0 0 0 0 0 0 0 0 0 0 0 0 0 0 0 0 0 0 127 0" result="hardAlpha"/>
<feOffset dy="-51.9844"/>
<feGaussianBlur stdDeviation="25.9922"/>
<feComposite in2="hardAlpha" operator="out"/>
<feColorMatrix type="matrix" values="0 0 0 0 0 0 0 0 0 0 0 0 0 0 0 0 0 0 0.37 0"/>
<feBlend mode="normal" in2="BackgroundImageFix" result="effect1_dropShadow_2_5621"/>
<feBlend mode="normal" in="SourceGraphic" in2="effect1_dropShadow_2_5621" result="shape"/>
</filter>
<clipPath id="clip0_2_5621">
<rect width="349.975" height="349.975" fill="white" transform="translate(0 -41)"/>
</clipPath>
</defs>
</svg>
