<svg width="31" height="31" viewBox="0 0 31 31" fill="none" xmlns="http://www.w3.org/2000/svg">
<path d="M28.404 7.67773C27.4625 8.08617 26.4668 8.35617 25.448 8.47934C26.5229 7.8372 27.3284 6.82699 27.7151 5.63612C26.705 6.23741 25.5993 6.66105 24.446 6.88864C23.6751 6.05267 22.6486 5.49621 21.5274 5.30652C20.4062 5.11683 19.2537 5.30465 18.2508 5.84052C17.2478 6.37638 16.4511 7.22999 15.9855 8.26746C15.52 9.30493 15.4119 10.4676 15.6783 11.5731C13.636 11.4698 11.6383 10.938 9.81485 10.0123C7.99144 9.08653 6.38317 7.78757 5.09452 6.19975C4.64253 6.98905 4.40503 7.88292 4.40563 8.79247C4.40403 9.63715 4.61132 10.4691 5.00904 11.2143C5.40677 11.9595 5.98258 12.5948 6.68522 13.0636C5.86855 13.0414 5.06933 12.8222 4.35553 12.4248V12.4874C4.36165 13.6709 4.77637 14.816 5.52954 15.7289C6.28271 16.6418 7.32809 17.2666 8.48886 17.4975C8.04203 17.6335 7.57812 17.7052 7.11108 17.7104C6.78779 17.7067 6.46531 17.6773 6.14664 17.6228C6.47719 18.6408 7.11687 19.5305 7.97667 20.1681C8.83647 20.8056 9.87362 21.1593 10.9438 21.1799C9.13667 22.6019 6.90552 23.3779 4.60604 23.3844C4.18736 23.3857 3.76902 23.3606 3.35352 23.3092C5.70128 24.8251 8.43727 25.6298 11.2319 25.6264C13.1604 25.6464 15.0735 25.282 16.8596 24.5543C18.6457 23.8267 20.2689 22.7504 21.6343 21.3885C22.9998 20.0265 24.0802 18.4061 24.8124 16.6219C25.5446 14.8377 25.914 12.9255 25.8989 10.9969C25.8989 10.784 25.8989 10.5585 25.8989 10.3331C26.8818 9.60011 27.7294 8.70157 28.404 7.67773Z" fill="#6D71F9"/>
</svg>
