<svg width="45" height="48" viewBox="0 0 45 48" fill="none" xmlns="http://www.w3.org/2000/svg">
<rect width="45" height="47" transform="translate(0 0.5)" fill="#272848" fill-opacity="0.05"/>
<circle cx="3" cy="3" r="3" transform="matrix(-1 0 0 1 26 22)" stroke="white" stroke-width="1.5"/>
<path d="M27.5006 17.9375L27.8756 17.288V17.288L27.5006 17.9375ZM27.5006 32.0621L27.1256 31.4126H27.1256L27.5006 32.0621ZM18.5006 32.0621L18.1256 32.7117H18.1256L18.5006 32.0621ZM18.5006 17.9375L18.8756 18.587L18.5006 17.9375ZM19.9235 16.015L19.1928 15.8459L19.9235 16.015ZM20.5398 15.3049L20.3558 14.5778L20.5398 15.3049ZM13.5563 21.7029L12.8482 21.4557L13.5563 21.7029ZM16.3121 31.7403L16.4843 32.4702L16.3121 31.7403ZM15.4031 31.5031L14.8336 31.9911L15.4031 31.5031ZM20.5399 34.6951L20.3559 35.4222L20.5399 34.6951ZM19.9236 33.9849L19.1929 34.1539L19.9236 33.9849ZM26.0776 33.9847L26.8083 34.1538L26.0776 33.9847ZM25.4614 34.6948L25.6454 35.4219L25.4614 34.6948ZM30.5971 31.5029L30.0276 31.0149L30.5971 31.5029ZM29.6883 31.7401L29.8604 31.0101L29.6883 31.7401ZM32.4437 21.7029L31.7356 21.9501L32.4437 21.7029ZM32.0936 22.6835L31.6167 22.1047L32.0936 22.6835ZM13.5563 28.2971L12.8482 28.5443L13.5563 28.2971ZM13.9064 27.3165L14.3833 27.8953L13.9064 27.3165ZM29.6882 18.2596L29.5161 17.5296L29.6882 18.2596ZM30.5969 18.4968L31.1664 18.0088L30.5969 18.4968ZM32.0936 27.3165L32.5705 26.7376L32.0936 27.3165ZM32.4437 28.2971L31.7356 28.0499L32.4437 28.2971ZM26.0776 16.0152L26.8083 15.8461L26.0776 16.0152ZM25.4615 15.3052L25.2775 16.0323L25.4615 15.3052ZM25.347 16.1843C25.5728 17.1601 26.1884 18.0459 27.1256 18.587L27.8756 17.288C27.3132 16.9633 26.9444 16.4338 26.8083 15.8461L25.347 16.1843ZM27.1256 18.587C27.9864 19.084 28.964 19.2008 29.8602 18.9896L29.5161 17.5296C28.977 17.6566 28.3925 17.5865 27.8756 17.288L27.1256 18.587ZM33.1518 21.4557C32.7062 20.1794 32.0272 19.0135 31.1664 18.0088L30.0273 18.9848C30.7688 19.8501 31.3527 20.8533 31.7356 21.9501L33.1518 21.4557ZM31.75 25C31.75 24.3006 32.0682 23.6762 32.5705 23.2624L31.6167 22.1047C30.7834 22.7913 30.25 23.8337 30.25 25H31.75ZM32.5705 26.7376C32.0682 26.3238 31.75 25.6994 31.75 25H30.25C30.25 26.1663 30.7834 27.2087 31.6167 27.8953L32.5705 26.7376ZM31.1667 31.9908C32.0274 30.9863 32.7063 29.8204 33.1518 28.5443L31.7356 28.0499C31.3528 29.1465 30.7689 30.1497 30.0276 31.0149L31.1667 31.9908ZM27.8756 32.7117C28.3926 32.4132 28.9771 32.343 29.5163 32.4701L29.8604 31.0101C28.9642 30.7989 27.9864 30.9156 27.1256 31.4126L27.8756 32.7117ZM26.8083 34.1538C26.9443 33.5659 27.3131 33.0364 27.8756 32.7117L27.1256 31.4126C26.1883 31.9538 25.5726 32.8397 25.3469 33.8157L26.8083 34.1538ZM23 35.75C23.9119 35.75 24.7984 35.6363 25.6454 35.4219L25.2774 33.9677C24.5496 34.1519 23.7868 34.25 23 34.25V35.75ZM20.3559 35.4222C21.2026 35.6364 22.0886 35.75 23 35.75V34.25C22.2136 34.25 21.4512 34.152 20.7238 33.968L20.3559 35.4222ZM18.1256 32.7117C18.688 33.0364 19.0569 33.566 19.1929 34.1539L20.6543 33.816C20.4286 32.8399 19.8129 31.9538 18.8756 31.4126L18.1256 32.7117ZM16.4843 32.4702C17.0236 32.343 17.6084 32.4131 18.1256 32.7117L18.8756 31.4126C18.0144 30.9154 17.0363 30.7988 16.1398 31.0103L16.4843 32.4702ZM12.8482 28.5443C13.2937 29.8206 13.9728 30.9865 14.8336 31.9911L15.9726 31.0151C15.2312 30.1498 14.6473 29.1466 14.2644 28.0499L12.8482 28.5443ZM14.25 25C14.25 25.6994 13.9318 26.3238 13.4295 26.7376L14.3833 27.8953C15.2166 27.2087 15.75 26.1663 15.75 25H14.25ZM13.4295 23.2624C13.9318 23.6762 14.25 24.3006 14.25 25H15.75C15.75 23.8337 15.2167 22.7913 14.3833 22.1047L13.4295 23.2624ZM14.8339 18.0085C13.9729 19.0132 13.2938 20.1793 12.8482 21.4557L14.2644 21.9501C14.6473 20.8532 15.2314 19.8499 15.9729 18.9846L14.8339 18.0085ZM18.1256 17.288C17.6084 17.5866 17.0237 17.6567 16.4845 17.5294L16.14 18.9894C17.0364 19.2008 18.0145 19.0842 18.8756 18.587L18.1256 17.288ZM19.1928 15.8459C19.0568 16.4338 18.688 16.9633 18.1256 17.288L18.8756 18.587C19.8128 18.0459 20.4284 17.16 20.6542 16.184L19.1928 15.8459ZM23 14.25C22.0885 14.25 21.2025 14.3636 20.3558 14.5778L20.7237 16.032C21.4511 15.848 22.2136 15.75 23 15.75V14.25ZM25.6455 14.5781C24.7984 14.3637 23.912 14.25 23 14.25V15.75C23.7868 15.75 24.5497 15.8481 25.2775 16.0323L25.6455 14.5781ZM20.6542 16.184C20.6698 16.1166 20.6963 16.069 20.7168 16.044C20.7344 16.0226 20.7376 16.0285 20.7237 16.032L20.3558 14.5778C19.6646 14.7527 19.3076 15.3497 19.1928 15.8459L20.6542 16.184ZM14.3833 22.1047C14.3225 22.0545 14.2871 22.0003 14.2729 21.964C14.2609 21.9334 14.2697 21.9348 14.2644 21.9501L12.8482 21.4557C12.5822 22.2177 12.9943 22.9038 13.4295 23.2624L14.3833 22.1047ZM16.1398 31.0103C16.0726 31.0262 16.0183 31.0236 15.9868 31.0163C15.9598 31.01 15.9635 31.0045 15.9726 31.0151L14.8336 31.9911C15.2967 32.5316 15.9887 32.5872 16.4843 32.4702L16.1398 31.0103ZM20.7238 33.968C20.7377 33.9715 20.7345 33.9775 20.7169 33.956C20.6964 33.9311 20.6699 33.8834 20.6543 33.816L19.1929 34.1539C19.3076 34.6502 19.6646 35.2473 20.3559 35.4222L20.7238 33.968ZM25.3469 33.8157C25.3313 33.8832 25.3048 33.9308 25.2843 33.9557C25.2667 33.9772 25.2635 33.9712 25.2774 33.9677L25.6454 35.4219C26.3366 35.2469 26.6935 34.65 26.8083 34.1538L25.3469 33.8157ZM30.0276 31.0149C30.0367 31.0042 30.0404 31.0097 30.0134 31.016C29.9819 31.0234 29.9277 31.026 29.8604 31.0101L29.5163 32.4701C30.0118 32.5869 30.7037 32.5312 31.1667 31.9908L30.0276 31.0149ZM31.7356 21.9501C31.7303 21.9348 31.7391 21.9334 31.7271 21.964C31.7129 22.0003 31.6775 22.0545 31.6167 22.1047L32.5705 23.2624C33.0057 22.9038 33.4178 22.2177 33.1518 21.4557L31.7356 21.9501ZM14.2644 28.0499C14.2697 28.0652 14.2609 28.0666 14.2729 28.036C14.2871 27.9997 14.3225 27.9455 14.3833 27.8953L13.4295 26.7376C12.9943 27.0962 12.5822 27.7823 12.8482 28.5443L14.2644 28.0499ZM29.8602 18.9896C29.9274 18.9737 29.9817 18.9763 30.0131 18.9837C30.0402 18.99 30.0365 18.9955 30.0273 18.9848L31.1664 18.0088C30.7034 17.4685 30.0116 17.4128 29.5161 17.5296L29.8602 18.9896ZM15.9729 18.9846C15.9637 18.9952 15.96 18.9897 15.9871 18.9834C16.0185 18.9761 16.0728 18.9735 16.14 18.9894L16.4845 17.5294C15.9889 17.4125 15.2969 17.4681 14.8339 18.0085L15.9729 18.9846ZM31.6167 27.8953C31.6775 27.9455 31.7129 27.9997 31.7271 28.036C31.7391 28.0666 31.7303 28.0652 31.7356 28.0499L33.1518 28.5443C33.4178 27.7823 33.0057 27.0962 32.5705 26.7376L31.6167 27.8953ZM26.8083 15.8461C26.6935 15.3499 26.3366 14.7531 25.6455 14.5781L25.2775 16.0323C25.2636 16.0288 25.2668 16.0229 25.2844 16.0443C25.3049 16.0692 25.3313 16.1168 25.347 16.1843L26.8083 15.8461Z" fill="white"/>
</svg>
