<svg width="20" height="18" viewBox="0 0 20 18" fill="none" xmlns="http://www.w3.org/2000/svg">
<path opacity="0.3" d="M17.4648 16.5357L2.46484 1.53566" stroke="#6D71F9" stroke-width="1.5" stroke-linecap="round" stroke-linejoin="round"/>
<path fill-rule="evenodd" clip-rule="evenodd" d="M3.96449 4.09617C3.61001 4.33607 3.27067 4.59648 2.94816 4.87568C1.97944 5.71433 1.16202 6.72305 0.54254 7.85583C0.15248 8.56908 0.152487 9.43129 0.542558 10.1445C2.36847 13.4832 5.91882 15.7501 9.99997 15.7501C10.9668 15.7501 11.905 15.6227 12.7981 15.3834C13.4208 15.2166 14.0212 14.9954 14.5938 14.7254L13.4547 13.5864C13.1158 13.7223 12.7671 13.8388 12.4099 13.9345C11.6423 14.1402 10.8346 14.2501 9.99997 14.2501C6.4879 14.2501 3.43153 12.3009 1.8586 9.4248C1.7138 9.16002 1.7138 8.84032 1.8586 8.57554C2.38561 7.61185 3.07974 6.75157 3.9023 6.03377L5.07528 5.20696L3.96449 4.09617ZM17.5236 12.691C17.227 12.9802 16.7522 12.9742 16.463 12.6776C16.1738 12.3811 16.1798 11.9062 16.4764 11.6171C17.1347 10.9752 17.6974 10.2366 18.1414 9.42467C18.2862 9.15989 18.2862 8.84019 18.1414 8.57541C16.5685 5.69929 13.5121 3.75011 10 3.75011C9.20019 3.75011 8.42506 3.85105 7.68628 4.04048C7.28505 4.14336 6.87638 3.9015 6.7735 3.50026C6.67062 3.09903 6.91249 2.69036 7.31372 2.58748C8.17323 2.3671 9.07349 2.25011 10 2.25011C14.0812 2.25011 17.6315 4.51697 19.4574 7.85568C19.8475 8.56892 19.8475 9.43113 19.4575 10.1444C18.9413 11.0883 18.2876 11.9461 17.5236 12.691Z" fill="#6D71F9"/>
<path opacity="0.3" d="M7 9C7 10.6569 8.34315 12 10 12" stroke="#6D71F9" stroke-width="1.5" stroke-linecap="round"/>
</svg>
