<svg xmlns="http://www.w3.org/2000/svg" width="22" height="21" viewBox="0 0 22 21" fill="none">
  <path fill-rule="evenodd" clip-rule="evenodd" d="M11 1.09619C10.124 1.09619 9.24804 1.38301 8.52142 1.95666L3.02142 6.29877C2.06058 7.05733 1.5 8.21411 1.5 9.4383V15.9999C1.5 18.209 3.29086 19.9999 5.5 19.9999H7C7.55228 19.9999 8 19.5522 8 18.9999V15.9999C8 14.8953 8.89543 13.9999 10 13.9999H11V1.09619Z" fill="#EEF2F8"/>
  <path d="M8.52142 1.95666L8.05669 1.368V1.368L8.52142 1.95666ZM11 1.09619H11.75V0.346191L11 0.346191V1.09619ZM3.02142 6.29877L3.48616 6.88743H3.48616L3.02142 6.29877ZM11 13.9999V14.7499H11.75V13.9999H11ZM8.98616 2.54532C9.57661 2.07918 10.2878 1.84619 11 1.84619V0.346191C9.96028 0.346191 8.91948 0.686851 8.05669 1.368L8.98616 2.54532ZM3.48616 6.88743L8.98616 2.54532L8.05669 1.368L2.55669 5.7101L3.48616 6.88743ZM2.25 9.4383C2.25 8.44365 2.70547 7.50376 3.48616 6.88743L2.55669 5.7101C1.41569 6.61089 0.75 7.98458 0.75 9.4383H2.25ZM2.25 15.9999V9.4383H0.75V15.9999H2.25ZM5.5 19.2499C3.70507 19.2499 2.25 17.7948 2.25 15.9999H0.75C0.75 18.6232 2.87665 20.7499 5.5 20.7499V19.2499ZM7 19.2499H5.5V20.7499H7V19.2499ZM7.25 18.9999C7.25 19.138 7.13807 19.2499 7 19.2499V20.7499C7.9665 20.7499 8.75 19.9664 8.75 18.9999H7.25ZM7.25 15.9999V18.9999H8.75V15.9999H7.25ZM10 13.2499C8.48122 13.2499 7.25 14.4811 7.25 15.9999H8.75C8.75 15.3095 9.30964 14.7499 10 14.7499V13.2499ZM11 13.2499H10V14.7499H11V13.2499ZM11.75 13.9999V1.09619H10.25V13.9999H11.75Z" fill="#EEF2F8"/>
  <path fill-rule="evenodd" clip-rule="evenodd" d="M11 1.09619C11.876 1.09619 12.752 1.38301 13.4786 1.95666L18.9786 6.29877C19.9394 7.05733 20.5 8.21411 20.5 9.4383V15.9999C20.5 18.209 18.7091 19.9999 16.5 19.9999H15C14.4477 19.9999 14 19.5522 14 18.9999V15.9999C14 14.8953 13.1046 13.9999 12 13.9999H11V1.09619Z" fill="#EEF2F8"/>
  <path d="M13.4786 1.95666L13.9433 1.368V1.368L13.4786 1.95666ZM11 1.09619H10.25V0.346191L11 0.346191V1.09619ZM18.9786 6.29877L18.5138 6.88743H18.5138L18.9786 6.29877ZM11 13.9999V14.7499H10.25V13.9999H11ZM13.0138 2.54532C12.4234 2.07918 11.7122 1.84619 11 1.84619V0.346191C12.0397 0.346191 13.0805 0.686851 13.9433 1.368L13.0138 2.54532ZM18.5138 6.88743L13.0138 2.54532L13.9433 1.368L19.4433 5.7101L18.5138 6.88743ZM19.75 9.4383C19.75 8.44365 19.2945 7.50376 18.5138 6.88743L19.4433 5.7101C20.5843 6.61089 21.25 7.98458 21.25 9.4383H19.75ZM19.75 15.9999V9.4383H21.25V15.9999H19.75ZM16.5 19.2499C18.2949 19.2499 19.75 17.7948 19.75 15.9999H21.25C21.25 18.6232 19.1234 20.7499 16.5 20.7499V19.2499ZM15 19.2499H16.5V20.7499H15V19.2499ZM14.75 18.9999C14.75 19.138 14.8619 19.2499 15 19.2499V20.7499C14.0335 20.7499 13.25 19.9664 13.25 18.9999H14.75ZM14.75 15.9999V18.9999H13.25V15.9999H14.75ZM12 13.2499C13.5188 13.2499 14.75 14.4811 14.75 15.9999H13.25C13.25 15.3095 12.6904 14.7499 12 14.7499V13.2499ZM11 13.2499H12V14.7499H11V13.2499ZM10.25 13.9999V1.09619H11.75V13.9999H10.25Z" fill="#EEF2F8"/>
</svg>