<svg width="24" height="24" viewBox="0 0 24 24" fill="none" xmlns="http://www.w3.org/2000/svg">
<path opacity="0.3" fill-rule="evenodd" clip-rule="evenodd" d="M1.25 17C1.25 20.1756 3.82436 22.75 7 22.75L17 22.75C20.1756 22.75 22.75 20.1756 22.75 17L22.75 7C22.75 3.82436 20.1756 1.25 17 1.25L7 1.25C3.82436 1.25 1.25 3.82436 1.25 7L1.25 17ZM7 21.25C4.65279 21.25 2.75 19.3472 2.75 17L2.75 7C2.75 4.65279 4.65279 2.75 7 2.75L17 2.75C19.3472 2.75 21.25 4.65279 21.25 7L21.25 17C21.25 19.3472 19.3472 21.25 17 21.25L7 21.25Z" fill="#272848"/>
<circle cx="12.0498" cy="16.9492" r="1.25" transform="rotate(-90 12.0498 16.9492)" fill="#272848"/>
<circle cx="12.0498" cy="11.9492" r="1.25" transform="rotate(-90 12.0498 11.9492)" fill="#272848"/>
<circle cx="12.0498" cy="6.94922" r="1.25" transform="rotate(-90 12.0498 6.94922)" fill="#272848"/>
</svg>
