<svg width="35" height="35" viewBox="0 0 35 35" fill="none" xmlns="http://www.w3.org/2000/svg">
<g opacity="0.6">
<path d="M13.0121 15.3297C11.4076 15.3297 10.1097 14.0797 10.1097 12.5097C10.1097 10.9397 11.4076 9.67969 13.0121 9.67969C14.6166 9.67969 15.8838 10.9397 15.8838 12.5097C15.8838 14.0797 14.6166 15.3297 13.0121 15.3297Z" fill="white"/>
<path opacity="0.3" d="M22.2301 14.87C22.036 14.57 21.76 14.27 21.4023 14.08C21.1162 13.94 20.9322 13.71 20.7687 13.44C20.2475 12.58 20.5541 11.45 21.4228 10.94C22.4447 10.37 22.7718 9.1 22.179 8.11L21.4943 6.93C20.9118 5.94 19.6344 5.59 18.6226 6.17C17.7233 6.65 16.5685 6.33 16.0473 5.48C15.8838 5.2 15.7918 4.9 15.8122 4.6C15.8429 4.21 15.7203 3.84 15.5363 3.54C15.1582 2.92 14.4735 2.5 13.7172 2.5H12.2763C11.5302 2.52 10.8455 2.92 10.4674 3.54C10.2732 3.84 10.1608 4.21 10.1813 4.6C10.2017 4.9 10.1097 5.2 9.9462 5.48C9.425 6.33 8.27019 6.65 7.38109 6.17C6.35913 5.59 5.09191 5.94 4.49917 6.93L3.81446 8.11C3.23194 9.1 3.55897 10.37 4.57071 10.94C5.43937 11.45 5.74596 12.58 5.23498 13.44C5.06125 13.71 4.87729 13.94 4.59115 14.08C4.24368 14.27 3.93709 14.57 3.77358 14.87C3.39546 15.49 3.4159 16.27 3.79402 16.92L4.49917 18.12C4.87729 18.76 5.58245 19.16 6.31825 19.16C6.66572 19.16 7.0745 19.06 7.40153 18.86C7.65702 18.69 7.96361 18.63 8.30085 18.63C9.31259 18.63 10.1608 19.46 10.1813 20.45C10.1813 21.6 11.1215 22.5 12.3069 22.5H13.6968C14.872 22.5 15.8122 21.6 15.8122 20.45C15.8429 19.46 16.6911 18.63 17.7029 18.63C18.0299 18.63 18.3365 18.69 18.6022 18.86C18.9292 19.06 19.3278 19.16 19.6855 19.16C20.411 19.16 21.1162 18.76 21.4943 18.12L22.2097 16.92C22.5776 16.25 22.6083 15.49 22.2301 14.87Z" fill="#EEF2F8"/>
</g>
</svg>
