<svg width="56" height="56" viewBox="0 0 56 56" fill="none" xmlns="http://www.w3.org/2000/svg">
<circle opacity="0.15" cx="28" cy="28" r="28" fill="white"/>
<path d="M30.6198 17.9361C28.9917 17.0213 27.0083 17.0213 25.3802 17.9361L19.3436 21.3276C17.8855 22.1468 17.8855 24.2543 19.3436 25.0735L25.3802 28.465C27.0083 29.3798 28.9917 29.3798 30.6198 28.465L36.6564 25.0735C38.1145 24.2543 38.1145 22.1468 36.6564 21.3276L30.6198 17.9361Z" fill="#00C3F9"/>
<path opacity="0.3" d="M18.9752 31.3369C17.898 32.2769 18.0208 34.0802 19.3436 34.8234L25.3802 38.2149C27.0083 39.1297 28.9917 39.1297 30.6198 38.2149L36.6564 34.8234C37.9792 34.0802 38.102 32.2769 37.0248 31.3369L31.3545 34.5227C29.2701 35.6938 26.7299 35.6938 24.6454 34.5227L18.9752 31.3369Z" fill="#00C3F9"/>
<path opacity="0.3" d="M18.9752 26.5C17.898 27.44 18.0208 29.2433 19.3436 29.9864L25.3802 33.378C27.0083 34.2928 28.9917 34.2928 30.6198 33.378L36.6564 29.9864C37.9792 29.2433 38.102 27.44 37.0248 26.5L31.3545 29.6857C29.2701 30.8568 26.7299 30.8568 24.6454 29.6857L18.9752 26.5Z" fill="#00C3F9"/>
</svg>
