<svg width="25" height="25" viewBox="0 0 25 25" fill="none" xmlns="http://www.w3.org/2000/svg">
<g opacity="0.6">
<path d="M15.6198 2.43606C13.9917 1.52131 12.0083 1.52131 10.3802 2.43606L4.34356 5.82762C2.88548 6.64682 2.88548 8.75428 4.34356 9.57348L10.3802 12.965C12.0083 13.8798 13.9917 13.8798 15.6198 12.965L21.6564 9.57348C23.1145 8.75428 23.1145 6.64682 21.6564 5.82762L15.6198 2.43606Z" fill="#EEF2F8"/>
<path opacity="0.3" d="M3.97517 15.8359C2.89805 16.7759 3.02084 18.5792 4.34356 19.3224L10.3802 22.7139C12.0083 23.6287 13.9917 23.6287 15.6198 22.7139L21.6564 19.3224C22.9792 18.5792 23.102 16.7759 22.0248 15.8359L16.3545 19.0217C14.2701 20.1928 11.7299 20.1928 9.64545 19.0217L3.97517 15.8359Z" fill="#EEF2F8"/>
<path opacity="0.3" d="M3.97517 11C2.89805 11.94 3.02084 13.7433 4.34356 14.4864L10.3802 17.878C12.0083 18.7928 13.9917 18.7928 15.6198 17.878L21.6564 14.4864C22.9792 13.7433 23.102 11.94 22.0248 11L16.3545 14.1857C14.2701 15.3568 11.7299 15.3568 9.64545 14.1857L3.97517 11Z" fill="#EEF2F8"/>
</g>
</svg>
