<svg width="24" height="25" viewBox="0 0 24 25" fill="none" xmlns="http://www.w3.org/2000/svg">
<path fill-rule="evenodd" clip-rule="evenodd" d="M20.3055 19.4193C20.3605 19.4266 20.4154 19.434 20.4703 19.4417L20.7438 19.4801C21.9346 19.6472 23 18.7396 23 17.558V16.6562C23 15.8112 22.4592 15.0573 21.649 14.7731C20.7124 14.4445 19.7454 14.2307 18.7693 14.1315C19.7874 14.8674 20.4188 16.0592 20.4188 17.3594V18.479C20.4188 18.8041 20.3795 19.1189 20.3055 19.4193ZM16.1801 12.9316C16.586 13.0994 17.032 13.1921 17.5 13.1921C19.3813 13.1921 20.9064 11.694 20.9064 9.84603C20.9064 7.99807 19.3813 6.5 17.5 6.5C17.4438 6.5 17.3879 6.50134 17.3323 6.50398C17.6744 7.23258 17.8656 8.04609 17.8656 8.90426C17.8656 10.4805 17.2206 11.9062 16.1801 12.9316Z" fill="#EEF2F8"/>
<path fill-rule="evenodd" clip-rule="evenodd" d="M4.07336 19.4193C4.01843 19.4266 3.96353 19.434 3.90865 19.4417L3.63514 19.4801C2.44432 19.6472 1.3789 18.7396 1.3789 17.558V16.6562C1.3789 15.8112 1.91973 15.0573 2.72992 14.7731C3.66652 14.4445 4.63347 14.2307 5.60957 14.1315C4.59154 14.8674 3.9601 16.0592 3.9601 17.3594V18.479C3.9601 18.8041 3.99944 19.1189 4.07336 19.4193ZM8.19881 12.9316C7.79288 13.0994 7.34692 13.1921 6.87891 13.1921C4.99759 13.1921 3.47248 11.694 3.47248 9.84603C3.47248 7.99807 4.99759 6.5 6.87891 6.5C6.93513 6.5 6.99102 6.50134 7.04657 6.50398C6.70448 7.23258 6.5133 8.04609 6.5133 8.90426C6.5133 10.4805 7.15832 11.9062 8.19881 12.9316Z" fill="#EEF2F8"/>
<path opacity="0.3" fill-rule="evenodd" clip-rule="evenodd" d="M7.15152 15.0215C10.4235 13.8529 13.9992 13.8529 17.2712 15.0215C18.2592 15.3743 18.9188 16.3102 18.9188 17.3594V18.479C18.9188 19.946 17.6195 21.0729 16.1672 20.8654L15.8337 20.8178C13.431 20.4745 10.9917 20.4745 8.58902 20.8178L8.25547 20.8654C6.80322 21.0729 5.50391 19.946 5.50391 18.479V17.3594C5.50391 16.3102 6.16346 15.3743 7.15152 15.0215Z" fill="#EEF2F8"/>
<path opacity="0.3" fill-rule="evenodd" clip-rule="evenodd" d="M16.3632 8.90426C16.3632 6.60992 14.5033 4.75 12.2089 4.75C9.91461 4.75 8.05469 6.60992 8.05469 8.90426C8.05469 11.1986 9.91461 13.0585 12.2089 13.0585C14.5033 13.0585 16.3632 11.1986 16.3632 8.90426Z" fill="#EEF2F8"/>
</svg>
