<svg width="18" height="23" viewBox="0 0 18 23" fill="none" xmlns="http://www.w3.org/2000/svg">
<path opacity="0.3" fill-rule="evenodd" clip-rule="evenodd" d="M5 0.75C2.37665 0.75 0.25 2.87665 0.25 5.5V17.5C0.25 20.1234 2.37665 22.25 5 22.25H13C15.6234 22.25 17.75 20.1234 17.75 17.5V5.5C17.75 2.87665 15.6234 0.75 13 0.75H5Z" fill="#EEF2F8"/>
<path fill-rule="evenodd" clip-rule="evenodd" d="M6 4.75C5.0335 4.75 4.25 5.5335 4.25 6.5V7.5C4.25 8.4665 5.0335 9.25 6 9.25H12C12.9665 9.25 13.75 8.4665 13.75 7.5V6.5C13.75 5.5335 12.9665 4.75 12 4.75H6Z" fill="#EEF2F8"/>
<path d="M6 17.5H5" stroke="#EEF2F8" stroke-width="1.5" stroke-linecap="round"/>
<path d="M6 13.5H5" stroke="#EEF2F8" stroke-width="1.5" stroke-linecap="round"/>
<path d="M12 17.5H13" stroke="#EEF2F8" stroke-width="1.5" stroke-linecap="round"/>
<path d="M12 13.5L13 13.5" stroke="#EEF2F8" stroke-width="1.5" stroke-linecap="round"/>
</svg>
